{
	"asset":{
		"generator":"Khronos glTF Blender I/O v4.3.47",
		"version":"2.0"
	},
	"scene":0,
	"scenes":[
		{
			"name":"Scene",
			"nodes":[
				0
			]
		}
	],
	"nodes":[
		{
			"mesh":0,
			"name":"Bathtub_02 - Default_0",
			"rotation":[
				-0.5000001192092896,
				0.5,
				0.5,
				0.5
			],
			"scale":[
				0.002411610446870327,
				0.002411610446870327,
				0.002411610446870327
			],
			"translation":[
				-1.2822303771972656,
				3.114067554473877,
				0
			]
		}
	],
	"materials":[
		{
			"doubleSided":true,
			"name":"02_-_Default",
			"pbrMetallicRoughness":{
				"baseColorTexture":{
					"index":0
				},
				"metallicFactor":0,
				"roughnessFactor":0.8929713368415833
			}
		},
		{
			"doubleSided":true,
			"name":"08_-_Default",
			"pbrMetallicRoughness":{
				"baseColorTexture":{
					"index":1
				},
				"metallicFactor":0,
				"roughnessFactor":0.8929713368415833
			}
		},
		{
			"doubleSided":true,
			"name":"03_-_Default",
			"pbrMetallicRoughness":{
				"baseColorTexture":{
					"index":2
				},
				"metallicFactor":0,
				"roughnessFactor":0.8929713368415833
			}
		},
		{
			"doubleSided":true,
			"name":"07_-_Default",
			"pbrMetallicRoughness":{
				"baseColorTexture":{
					"index":3
				},
				"metallicFactor":0,
				"roughnessFactor":0.8929713368415833
			}
		},
		{
			"doubleSided":true,
			"name":"lambert3",
			"pbrMetallicRoughness":{
				"baseColorFactor":[
					0.10407499969005585,
					0.055827900767326355,
					0.021688299253582954,
					1
				],
				"metallicFactor":0,
				"roughnessFactor":0.6000000238418579
			}
		},
		{
			"doubleSided":true,
			"name":"Material_37.001",
			"pbrMetallicRoughness":{
				"baseColorFactor":[
					0.11070892214775085,
					0.11070892214775085,
					0.05377289280295372,
					1
				],
				"metallicFactor":0,
				"roughnessFactor":0.8929713368415833
			}
		},
		{
			"doubleSided":true,
			"name":"lambert2",
			"pbrMetallicRoughness":{
				"baseColorFactor":[
					0.2806999981403351,
					0.12803199887275696,
					0.04953259974718094,
					1
				],
				"metallicFactor":0,
				"roughnessFactor":0.6000000238418579
			}
		},
		{
			"doubleSided":true,
			"name":"lambert6",
			"pbrMetallicRoughness":{
				"baseColorFactor":[
					0.3779999911785126,
					0.24031199514865875,
					0.1428840011358261,
					1
				],
				"metallicFactor":0,
				"roughnessFactor":0.6000000238418579
			}
		},
		{
			"doubleSided":true,
			"emissiveFactor":[
				0.019354799762368202,
				0.019354799762368202,
				0.019354799762368202
			],
			"name":"lambert4",
			"pbrMetallicRoughness":{
				"baseColorFactor":[
					0.25874099135398865,
					0.11801599711179733,
					0.045657798647880554,
					1
				],
				"metallicFactor":0,
				"roughnessFactor":0.6000000238418579
			}
		},
		{
			"doubleSided":true,
			"emissiveFactor":[
				0.04516129940748215,
				0.04516129940748215,
				0.04516129940748215
			],
			"name":"lambert7",
			"pbrMetallicRoughness":{
				"baseColorFactor":[
					0.2645159959793091,
					0.2645159959793091,
					0.2645159959793091,
					1
				],
				"metallicFactor":0,
				"roughnessFactor":0.6000000238418579
			}
		}
	],
	"meshes":[
		{
			"name":"Bathtub_02 - Default_0",
			"primitives":[
				{
					"attributes":{
						"POSITION":0,
						"NORMAL":1,
						"TEXCOORD_0":2
					},
					"indices":3,
					"material":0
				},
				{
					"attributes":{
						"POSITION":4,
						"NORMAL":5,
						"TEXCOORD_0":6
					},
					"indices":7,
					"material":1
				},
				{
					"attributes":{
						"POSITION":8,
						"NORMAL":9,
						"TEXCOORD_0":10
					},
					"indices":11,
					"material":2
				},
				{
					"attributes":{
						"POSITION":12,
						"NORMAL":13,
						"TEXCOORD_0":14
					},
					"indices":15,
					"material":3
				},
				{
					"attributes":{
						"POSITION":16,
						"NORMAL":17,
						"TEXCOORD_0":18
					},
					"indices":19,
					"material":4
				},
				{
					"attributes":{
						"POSITION":20,
						"NORMAL":21,
						"TEXCOORD_0":22
					},
					"indices":23,
					"material":5
				},
				{
					"attributes":{
						"POSITION":24,
						"NORMAL":25,
						"TEXCOORD_0":26
					},
					"indices":27,
					"material":6
				},
				{
					"attributes":{
						"POSITION":28,
						"NORMAL":29,
						"TEXCOORD_0":30
					},
					"indices":31,
					"material":7
				},
				{
					"attributes":{
						"POSITION":32,
						"NORMAL":33,
						"TEXCOORD_0":34
					},
					"indices":35,
					"material":8
				},
				{
					"attributes":{
						"POSITION":36,
						"NORMAL":37,
						"TEXCOORD_0":38
					},
					"indices":39,
					"material":9
				}
			]
		}
	],
	"textures":[
		{
			"sampler":0,
			"source":0
		},
		{
			"sampler":0,
			"source":1
		},
		{
			"sampler":0,
			"source":2
		},
		{
			"sampler":0,
			"source":3
		}
	],
	"images":[
		{
			"mimeType":"image/png",
			"name":"02_-_Default_baseColor",
			"uri":"02_-_Default_baseColor.png"
		},
		{
			"mimeType":"image/png",
			"name":"08_-_Default_baseColor",
			"uri":"08_-_Default_baseColor.png"
		},
		{
			"mimeType":"image/png",
			"name":"03_-_Default_baseColor",
			"uri":"03_-_Default_baseColor.png"
		},
		{
			"mimeType":"image/png",
			"name":"07_-_Default_baseColor",
			"uri":"07_-_Default_baseColor.png"
		}
	],
	"accessors":[
		{
			"bufferView":0,
			"componentType":5126,
			"count":2355,
			"max":[
				-25.866561889648438,
				374.2292785644531,
				-1076.734375
			],
			"min":[
				-2189.5712890625,
				-2280.138671875,
				-1411.737548828125
			],
			"type":"VEC3"
		},
		{
			"bufferView":1,
			"componentType":5126,
			"count":2355,
			"type":"VEC3"
		},
		{
			"bufferView":2,
			"componentType":5126,
			"count":2355,
			"type":"VEC2"
		},
		{
			"bufferView":3,
			"componentType":5123,
			"count":4656,
			"type":"SCALAR"
		},
		{
			"bufferView":4,
			"componentType":5126,
			"count":6663,
			"max":[
				1466.8868408203125,
				2760.857421875,
				1368.41748046875
			],
			"min":[
				-13.475448608398438,
				-664.764892578125,
				-1410.436279296875
			],
			"type":"VEC3"
		},
		{
			"bufferView":5,
			"componentType":5126,
			"count":6663,
			"type":"VEC3"
		},
		{
			"bufferView":6,
			"componentType":5126,
			"count":6663,
			"type":"VEC2"
		},
		{
			"bufferView":7,
			"componentType":5123,
			"count":13950,
			"type":"SCALAR"
		},
		{
			"bufferView":8,
			"componentType":5126,
			"count":4365,
			"max":[
				1601.1983642578125,
				164.87869262695312,
				1528.820068359375
			],
			"min":[
				-744.165771484375,
				-3221.7705078125,
				-1410.437255859375
			],
			"type":"VEC3"
		},
		{
			"bufferView":9,
			"componentType":5126,
			"count":4365,
			"type":"VEC3"
		},
		{
			"bufferView":10,
			"componentType":5126,
			"count":4365,
			"type":"VEC2"
		},
		{
			"bufferView":11,
			"componentType":5123,
			"count":8616,
			"type":"SCALAR"
		},
		{
			"bufferView":12,
			"componentType":5126,
			"count":1338,
			"max":[
				1611.3304443359375,
				-29.639739990234375,
				2127.04638671875
			],
			"min":[
				-1260.8272705078125,
				-2418.3515625,
				-1410.43701171875
			],
			"type":"VEC3"
		},
		{
			"bufferView":13,
			"componentType":5126,
			"count":1338,
			"type":"VEC3"
		},
		{
			"bufferView":14,
			"componentType":5126,
			"count":1338,
			"type":"VEC2"
		},
		{
			"bufferView":15,
			"componentType":5123,
			"count":2478,
			"type":"SCALAR"
		},
		{
			"bufferView":16,
			"componentType":5126,
			"count":24,
			"max":[
				2071.2841796875,
				1847.793701171875,
				1893.27734375
			],
			"min":[
				-1581.674072265625,
				-3084.39306640625,
				-1545.7156982421875
			],
			"type":"VEC3"
		},
		{
			"bufferView":17,
			"componentType":5126,
			"count":24,
			"type":"VEC3"
		},
		{
			"bufferView":18,
			"componentType":5126,
			"count":24,
			"type":"VEC2"
		},
		{
			"bufferView":19,
			"componentType":5123,
			"count":30,
			"type":"SCALAR"
		},
		{
			"bufferView":20,
			"componentType":5126,
			"count":758,
			"max":[
				2931.329345703125,
				2983.05859375,
				-1219.221923828125
			],
			"min":[
				-2931.32861328125,
				-4046.43896484375,
				-1895.7696533203125
			],
			"type":"VEC3"
		},
		{
			"bufferView":21,
			"componentType":5126,
			"count":758,
			"type":"VEC3"
		},
		{
			"bufferView":22,
			"componentType":5126,
			"count":758,
			"type":"VEC2"
		},
		{
			"bufferView":23,
			"componentType":5123,
			"count":3423,
			"type":"SCALAR"
		},
		{
			"bufferView":24,
			"componentType":5126,
			"count":256,
			"max":[
				1955.421142578125,
				1431.57568359375,
				-550.693603515625
			],
			"min":[
				-871.7579956054688,
				-1794.998779296875,
				-1292.952392578125
			],
			"type":"VEC3"
		},
		{
			"bufferView":25,
			"componentType":5126,
			"count":256,
			"type":"VEC3"
		},
		{
			"bufferView":26,
			"componentType":5126,
			"count":256,
			"type":"VEC2"
		},
		{
			"bufferView":27,
			"componentType":5123,
			"count":402,
			"type":"SCALAR"
		},
		{
			"bufferView":28,
			"componentType":5126,
			"count":15,
			"max":[
				1853.778564453125,
				-2380.791259765625,
				-879.030517578125
			],
			"min":[
				-1124.510498046875,
				-3353.59716796875,
				-1266.8524169921875
			],
			"type":"VEC3"
		},
		{
			"bufferView":29,
			"componentType":5126,
			"count":15,
			"type":"VEC3"
		},
		{
			"bufferView":30,
			"componentType":5126,
			"count":15,
			"type":"VEC2"
		},
		{
			"bufferView":31,
			"componentType":5123,
			"count":15,
			"type":"SCALAR"
		},
		{
			"bufferView":32,
			"componentType":5126,
			"count":64,
			"max":[
				2278.683349609375,
				-478.361572265625,
				-635.2425537109375
			],
			"min":[
				-1568.44287109375,
				-2757.4150390625,
				-1071.59619140625
			],
			"type":"VEC3"
		},
		{
			"bufferView":33,
			"componentType":5126,
			"count":64,
			"type":"VEC3"
		},
		{
			"bufferView":34,
			"componentType":5126,
			"count":64,
			"type":"VEC2"
		},
		{
			"bufferView":35,
			"componentType":5123,
			"count":66,
			"type":"SCALAR"
		},
		{
			"bufferView":36,
			"componentType":5126,
			"count":136,
			"max":[
				1630.484130859375,
				-427.4549560546875,
				-311.9283447265625
			],
			"min":[
				-1033.720458984375,
				-2547.35302734375,
				-1212.9063720703125
			],
			"type":"VEC3"
		},
		{
			"bufferView":37,
			"componentType":5126,
			"count":136,
			"type":"VEC3"
		},
		{
			"bufferView":38,
			"componentType":5126,
			"count":136,
			"type":"VEC2"
		},
		{
			"bufferView":39,
			"componentType":5123,
			"count":198,
			"type":"SCALAR"
		}
	],
	"bufferViews":[
		{
			"buffer":0,
			"byteLength":28260,
			"byteOffset":0,
			"target":34962
		},
		{
			"buffer":0,
			"byteLength":28260,
			"byteOffset":28260,
			"target":34962
		},
		{
			"buffer":0,
			"byteLength":18840,
			"byteOffset":56520,
			"target":34962
		},
		{
			"buffer":0,
			"byteLength":9312,
			"byteOffset":75360,
			"target":34963
		},
		{
			"buffer":0,
			"byteLength":79956,
			"byteOffset":84672,
			"target":34962
		},
		{
			"buffer":0,
			"byteLength":79956,
			"byteOffset":164628,
			"target":34962
		},
		{
			"buffer":0,
			"byteLength":53304,
			"byteOffset":244584,
			"target":34962
		},
		{
			"buffer":0,
			"byteLength":27900,
			"byteOffset":297888,
			"target":34963
		},
		{
			"buffer":0,
			"byteLength":52380,
			"byteOffset":325788,
			"target":34962
		},
		{
			"buffer":0,
			"byteLength":52380,
			"byteOffset":378168,
			"target":34962
		},
		{
			"buffer":0,
			"byteLength":34920,
			"byteOffset":430548,
			"target":34962
		},
		{
			"buffer":0,
			"byteLength":17232,
			"byteOffset":465468,
			"target":34963
		},
		{
			"buffer":0,
			"byteLength":16056,
			"byteOffset":482700,
			"target":34962
		},
		{
			"buffer":0,
			"byteLength":16056,
			"byteOffset":498756,
			"target":34962
		},
		{
			"buffer":0,
			"byteLength":10704,
			"byteOffset":514812,
			"target":34962
		},
		{
			"buffer":0,
			"byteLength":4956,
			"byteOffset":525516,
			"target":34963
		},
		{
			"buffer":0,
			"byteLength":288,
			"byteOffset":530472,
			"target":34962
		},
		{
			"buffer":0,
			"byteLength":288,
			"byteOffset":530760,
			"target":34962
		},
		{
			"buffer":0,
			"byteLength":192,
			"byteOffset":531048,
			"target":34962
		},
		{
			"buffer":0,
			"byteLength":60,
			"byteOffset":531240,
			"target":34963
		},
		{
			"buffer":0,
			"byteLength":9096,
			"byteOffset":531300,
			"target":34962
		},
		{
			"buffer":0,
			"byteLength":9096,
			"byteOffset":540396,
			"target":34962
		},
		{
			"buffer":0,
			"byteLength":6064,
			"byteOffset":549492,
			"target":34962
		},
		{
			"buffer":0,
			"byteLength":6846,
			"byteOffset":555556,
			"target":34963
		},
		{
			"buffer":0,
			"byteLength":3072,
			"byteOffset":562404,
			"target":34962
		},
		{
			"buffer":0,
			"byteLength":3072,
			"byteOffset":565476,
			"target":34962
		},
		{
			"buffer":0,
			"byteLength":2048,
			"byteOffset":568548,
			"target":34962
		},
		{
			"buffer":0,
			"byteLength":804,
			"byteOffset":570596,
			"target":34963
		},
		{
			"buffer":0,
			"byteLength":180,
			"byteOffset":571400,
			"target":34962
		},
		{
			"buffer":0,
			"byteLength":180,
			"byteOffset":571580,
			"target":34962
		},
		{
			"buffer":0,
			"byteLength":120,
			"byteOffset":571760,
			"target":34962
		},
		{
			"buffer":0,
			"byteLength":30,
			"byteOffset":571880,
			"target":34963
		},
		{
			"buffer":0,
			"byteLength":768,
			"byteOffset":571912,
			"target":34962
		},
		{
			"buffer":0,
			"byteLength":768,
			"byteOffset":572680,
			"target":34962
		},
		{
			"buffer":0,
			"byteLength":512,
			"byteOffset":573448,
			"target":34962
		},
		{
			"buffer":0,
			"byteLength":132,
			"byteOffset":573960,
			"target":34963
		},
		{
			"buffer":0,
			"byteLength":1632,
			"byteOffset":574092,
			"target":34962
		},
		{
			"buffer":0,
			"byteLength":1632,
			"byteOffset":575724,
			"target":34962
		},
		{
			"buffer":0,
			"byteLength":1088,
			"byteOffset":577356,
			"target":34962
		},
		{
			"buffer":0,
			"byteLength":396,
			"byteOffset":578444,
			"target":34963
		}
	],
	"samplers":[
		{
			"magFilter":9729,
			"minFilter":9987
		}
	],
	"buffers":[
		{
			"byteLength":578840,
			"uri":"foundry.bin"
		}
	]
}
