{
	"asset":{
		"generator":"Khronos glTF Blender I/O v4.3.47",
		"version":"2.0"
	},
	"scene":0,
	"scenes":[
		{
			"name":"Scene",
			"nodes":[
				0
			]
		}
	],
	"nodes":[
		{
			"mesh":0,
			"name":"Object_2",
			"rotation":[
				-0.3798457384109497,
				0.07346505671739578,
				0.034068431705236435,
				0.9214984774589539
			],
			"scale":[
				0.8234875798225403,
				0.8234876394271851,
				0.8234875798225403
			]
		}
	],
	"materials":[
		{
			"doubleSided":true,
			"emissiveFactor":[
				1,
				1,
				1
			],
			"emissiveTexture":{
				"index":0
			},
			"name":"Material__25",
			"normalTexture":{
				"index":1
			},
			"occlusionTexture":{
				"index":2,
				"strength":0.9285442233085632
			},
			"pbrMetallicRoughness":{
				"baseColorTexture":{
					"index":3
				},
				"metallicFactor":0,
				"metallicRoughnessTexture":{
					"index":2
				},
				"roughnessFactor":0.4773246943950653
			}
		}
	],
	"meshes":[
		{
			"name":"Object_0.001",
			"primitives":[
				{
					"attributes":{
						"POSITION":0,
						"NORMAL":1,
						"TEXCOORD_0":2
					},
					"indices":3,
					"material":0
				}
			]
		}
	],
	"textures":[
		{
			"sampler":0,
			"source":0
		},
		{
			"sampler":0,
			"source":1
		},
		{
			"sampler":0,
			"source":2
		},
		{
			"sampler":0,
			"source":0
		}
	],
	"images":[
		{
			"mimeType":"image/jpeg",
			"name":"Material__25_baseColor",
			"uri":"Material__25_baseColor.jpg"
		},
		{
			"mimeType":"image/png",
			"name":"Material__25_normal",
			"uri":"Material__25_normal.png"
		},
		{
			"mimeType":"image/png",
			"name":"Material__25_metallicRoughness",
			"uri":"Material__25_metallicRoughness.png"
		}
	],
	"accessors":[
		{
			"bufferView":0,
			"componentType":5126,
			"count":6282,
			"max":[
				8.650287628173828,
				5.5943450927734375,
				5.258098125457764
			],
			"min":[
				-8.272512435913086,
				-6.632754802703857,
				-6.921401500701904
			],
			"type":"VEC3"
		},
		{
			"bufferView":1,
			"componentType":5126,
			"count":6282,
			"type":"VEC3"
		},
		{
			"bufferView":2,
			"componentType":5126,
			"count":6282,
			"type":"VEC2"
		},
		{
			"bufferView":3,
			"componentType":5123,
			"count":28530,
			"type":"SCALAR"
		}
	],
	"bufferViews":[
		{
			"buffer":0,
			"byteLength":75384,
			"byteOffset":0,
			"target":34962
		},
		{
			"buffer":0,
			"byteLength":75384,
			"byteOffset":75384,
			"target":34962
		},
		{
			"buffer":0,
			"byteLength":50256,
			"byteOffset":150768,
			"target":34962
		},
		{
			"buffer":0,
			"byteLength":57060,
			"byteOffset":201024,
			"target":34963
		}
	],
	"samplers":[
		{
			"magFilter":9729,
			"minFilter":9987
		}
	],
	"buffers":[
		{
			"byteLength":258084,
			"uri":"meteorite.bin"
		}
	]
}
