{
	"asset":{
		"generator":"Khronos glTF Blender I/O v4.3.47",
		"version":"2.0"
	},
	"extensionsUsed":[
		"KHR_materials_specular",
		"KHR_materials_ior"
	],
	"scene":0,
	"scenes":[
		{
			"name":"Scene",
			"nodes":[
				2
			]
		}
	],
	"nodes":[
		{
			"mesh":0,
			"name":"node_id31",
			"scale":[
				67.85112762451172,
				67.85112762451172,
				67.85112762451172
			]
		},
		{
			"children":[
				0
			],
			"name":"node_id35",
			"scale":[
				0.0010000000474974513,
				0.0010000000474974513,
				0.0010000000474974513
			]
		},
		{
			"children":[
				1
			],
			"name":"root",
			"scale":[
				7.647045612335205,
				7.647045612335205,
				7.647045612335205
			],
			"translation":[
				0,
				0.012353227473795414,
				0
			]
		}
	],
	"materials":[
		{
			"alphaMode":"MASK",
			"doubleSided":true,
			"extensions":{
				"KHR_materials_specular":{
					"specularColorTexture":{
						"index":0
					}
				},
				"KHR_materials_ior":{
					"ior":1000
				}
			},
			"name":"50",
			"pbrMetallicRoughness":{
				"baseColorTexture":{
					"index":1
				},
				"metallicFactor":0,
				"metallicRoughnessTexture":{
					"index":2
				}
			}
		},
		{
			"alphaMode":"MASK",
			"doubleSided":true,
			"extensions":{
				"KHR_materials_specular":{
					"specularColorTexture":{
						"index":3
					}
				},
				"KHR_materials_ior":{
					"ior":1000
				}
			},
			"name":"51",
			"pbrMetallicRoughness":{
				"baseColorTexture":{
					"index":4
				},
				"metallicFactor":0,
				"metallicRoughnessTexture":{
					"index":5
				}
			}
		}
	],
	"meshes":[
		{
			"name":"mesh_id32",
			"primitives":[
				{
					"attributes":{
						"POSITION":0,
						"NORMAL":1,
						"TEXCOORD_0":2
					},
					"indices":3,
					"material":0
				},
				{
					"attributes":{
						"POSITION":4,
						"NORMAL":5,
						"TEXCOORD_0":6
					},
					"indices":7,
					"material":1
				}
			]
		}
	],
	"textures":[
		{
			"sampler":0,
			"source":0
		},
		{
			"sampler":0,
			"source":1
		},
		{
			"sampler":0,
			"source":2
		},
		{
			"sampler":0,
			"source":3
		},
		{
			"sampler":0,
			"source":4
		},
		{
			"sampler":0,
			"source":5
		}
	],
	"images":[
		{
			"mimeType":"image/png",
			"name":"Image_1",
			"uri":"Image_1.png"
		},
		{
			"mimeType":"image/png",
			"name":"Image_0",
			"uri":"Image_0.png"
		},
		{
			"mimeType":"image/png",
			"name":"Image_1-1",
			"uri":"Image_1-1.png"
		},
		{
			"mimeType":"image/png",
			"name":"Image_5",
			"uri":"Image_5.png"
		},
		{
			"mimeType":"image/png",
			"name":"Image_4",
			"uri":"Image_4.png"
		},
		{
			"mimeType":"image/png",
			"name":"Image_5-1",
			"uri":"Image_5-1.png"
		}
	],
	"accessors":[
		{
			"bufferView":0,
			"componentType":5126,
			"count":138009,
			"max":[
				4.2610602378845215,
				2.514331102371216,
				7.170083045959473
			],
			"min":[
				-3.284872055053711,
				-0.5895545482635498,
				-5.780481338500977
			],
			"type":"VEC3"
		},
		{
			"bufferView":1,
			"componentType":5126,
			"count":138009,
			"type":"VEC3"
		},
		{
			"bufferView":2,
			"componentType":5126,
			"count":138009,
			"type":"VEC2"
		},
		{
			"bufferView":3,
			"componentType":5125,
			"count":138027,
			"type":"SCALAR"
		},
		{
			"bufferView":4,
			"componentType":5126,
			"count":46422,
			"max":[
				4.098185062408447,
				1.9240310192108154,
				7.1376447677612305
			],
			"min":[
				-3.1822073459625244,
				-3.0794568061828613,
				-5.692638397216797
			],
			"type":"VEC3"
		},
		{
			"bufferView":5,
			"componentType":5126,
			"count":46422,
			"type":"VEC3"
		},
		{
			"bufferView":6,
			"componentType":5126,
			"count":46422,
			"type":"VEC2"
		},
		{
			"bufferView":7,
			"componentType":5123,
			"count":46422,
			"type":"SCALAR"
		}
	],
	"bufferViews":[
		{
			"buffer":0,
			"byteLength":1656108,
			"byteOffset":0,
			"target":34962
		},
		{
			"buffer":0,
			"byteLength":1656108,
			"byteOffset":1656108,
			"target":34962
		},
		{
			"buffer":0,
			"byteLength":1104072,
			"byteOffset":3312216,
			"target":34962
		},
		{
			"buffer":0,
			"byteLength":552108,
			"byteOffset":4416288,
			"target":34963
		},
		{
			"buffer":0,
			"byteLength":557064,
			"byteOffset":4968396,
			"target":34962
		},
		{
			"buffer":0,
			"byteLength":557064,
			"byteOffset":5525460,
			"target":34962
		},
		{
			"buffer":0,
			"byteLength":371376,
			"byteOffset":6082524,
			"target":34962
		},
		{
			"buffer":0,
			"byteLength":92844,
			"byteOffset":6453900,
			"target":34963
		}
	],
	"samplers":[
		{
			"magFilter":9729,
			"minFilter":9987
		}
	],
	"buffers":[
		{
			"byteLength":6546744,
			"uri":"forest.bin"
		}
	]
}
