{
	"asset":{
		"generator":"Khronos glTF Blender I/O v4.3.47",
		"version":"2.0"
	},
	"scene":0,
	"scenes":[
		{
			"name":"Scene",
			"nodes":[
				4
			]
		}
	],
	"nodes":[
		{
			"mesh":0,
			"name":"polySurface23_lambert3_0"
		},
		{
			"children":[
				0
			],
			"name":"polySurface23"
		},
		{
			"children":[
				1
			],
			"name":"RootNode"
		},
		{
			"children":[
				2
			],
			"name":"69bc1e1c8035456290551b507869d4dc.fbx",
			"rotation":[
				0.70710688829422,
				0,
				0,
				0.7071066498756409
			]
		},
		{
			"children":[
				3
			],
			"name":"Sketchfab_model",
			"rotation":[
				-0.70710688829422,
				0,
				0,
				0.7071066498756409
			],
			"scale":[
				0.2515827715396881,
				0.27730223536491394,
				0.2515828013420105
			],
			"translation":[
				-4.578500270843506,
				2.0753581523895264,
				-2.0913593769073486
			]
		}
	],
	"materials":[
		{
			"doubleSided":true,
			"name":"lambert3",
			"pbrMetallicRoughness":{
				"baseColorFactor":[
					0.10407499969005585,
					0.055827900767326355,
					0.021688299253582954,
					1
				],
				"metallicFactor":0,
				"roughnessFactor":0.6000000238418579
			}
		},
		{
			"doubleSided":true,
			"name":"Material_37.001",
			"pbrMetallicRoughness":{
				"baseColorFactor":[
					0.11070892214775085,
					0.11070892214775085,
					0.05377289280295372,
					1
				],
				"metallicFactor":0,
				"roughnessFactor":0.8929713368415833
			}
		},
		{
			"doubleSided":true,
			"name":"lambert2",
			"pbrMetallicRoughness":{
				"baseColorFactor":[
					0.2806999981403351,
					0.12803199887275696,
					0.04953259974718094,
					1
				],
				"metallicFactor":0,
				"roughnessFactor":0.6000000238418579
			}
		},
		{
			"doubleSided":true,
			"name":"lambert6",
			"pbrMetallicRoughness":{
				"baseColorFactor":[
					0.3779999911785126,
					0.24031199514865875,
					0.1428840011358261,
					1
				],
				"metallicFactor":0,
				"roughnessFactor":0.6000000238418579
			}
		},
		{
			"doubleSided":true,
			"emissiveFactor":[
				0.019354799762368202,
				0.019354799762368202,
				0.019354799762368202
			],
			"name":"lambert4",
			"pbrMetallicRoughness":{
				"baseColorFactor":[
					0.25874099135398865,
					0.11801599711179733,
					0.045657798647880554,
					1
				],
				"metallicFactor":0,
				"roughnessFactor":0.6000000238418579
			}
		},
		{
			"doubleSided":true,
			"emissiveFactor":[
				0.04516129940748215,
				0.04516129940748215,
				0.04516129940748215
			],
			"name":"lambert7",
			"pbrMetallicRoughness":{
				"baseColorFactor":[
					0.2645159959793091,
					0.2645159959793091,
					0.2645159959793091,
					1
				],
				"metallicFactor":0,
				"roughnessFactor":0.6000000238418579
			}
		},
		{
			"doubleSided":true,
			"name":"lambert1",
			"pbrMetallicRoughness":{
				"baseColorFactor":[
					0.5,
					0.5,
					0.5,
					1
				],
				"metallicFactor":0,
				"roughnessFactor":0.6000000238418579
			}
		},
		{
			"doubleSided":true,
			"name":"lambert8",
			"pbrMetallicRoughness":{
				"baseColorFactor":[
					0.2451999932527542,
					0.1891999989748001,
					0.14970000088214874,
					1
				],
				"metallicFactor":0,
				"roughnessFactor":0.6000000238418579
			}
		},
		{
			"doubleSided":true,
			"name":"lambert5",
			"pbrMetallicRoughness":{
				"baseColorFactor":[
					0.22390000522136688,
					0.18209999799728394,
					0.09300000220537186,
					1
				],
				"metallicFactor":0,
				"roughnessFactor":0.6000000238418579
			}
		}
	],
	"meshes":[
		{
			"name":"polySurface23_lambert3_0",
			"primitives":[
				{
					"attributes":{
						"POSITION":0,
						"NORMAL":1,
						"TEXCOORD_0":2
					},
					"indices":3,
					"material":0
				},
				{
					"attributes":{
						"POSITION":4,
						"NORMAL":5,
						"TEXCOORD_0":6
					},
					"indices":7,
					"material":1
				},
				{
					"attributes":{
						"POSITION":8,
						"NORMAL":9,
						"TEXCOORD_0":10
					},
					"indices":11,
					"material":2
				},
				{
					"attributes":{
						"POSITION":12,
						"NORMAL":13,
						"TEXCOORD_0":14
					},
					"indices":15,
					"material":3
				},
				{
					"attributes":{
						"POSITION":16,
						"NORMAL":17,
						"TEXCOORD_0":18
					},
					"indices":19,
					"material":4
				},
				{
					"attributes":{
						"POSITION":20,
						"NORMAL":21,
						"TEXCOORD_0":22
					},
					"indices":23,
					"material":5
				},
				{
					"attributes":{
						"POSITION":24,
						"NORMAL":25,
						"TEXCOORD_0":26
					},
					"indices":27,
					"material":6
				},
				{
					"attributes":{
						"POSITION":28,
						"NORMAL":29,
						"TEXCOORD_0":30
					},
					"indices":31,
					"material":7
				},
				{
					"attributes":{
						"POSITION":32,
						"NORMAL":33,
						"TEXCOORD_0":34
					},
					"indices":35,
					"material":8
				}
			]
		}
	],
	"accessors":[
		{
			"bufferView":0,
			"componentType":5126,
			"count":2024,
			"max":[
				43.43832778930664,
				22.277193069458008,
				21.352510452270508
			],
			"min":[
				-8.802090644836426,
				-11.253582000732422,
				-12.645642280578613
			],
			"type":"VEC3"
		},
		{
			"bufferView":1,
			"componentType":5126,
			"count":2024,
			"type":"VEC3"
		},
		{
			"bufferView":2,
			"componentType":5126,
			"count":2024,
			"type":"VEC2"
		},
		{
			"bufferView":3,
			"componentType":5123,
			"count":5424,
			"type":"SCALAR"
		},
		{
			"bufferView":4,
			"componentType":5126,
			"count":1310,
			"max":[
				51.890289306640625,
				-7.558459281921387,
				33.03465270996094
			],
			"min":[
				-15.492721557617188,
				-14.043678283691406,
				-17.951040267944336
			],
			"type":"VEC3"
		},
		{
			"bufferView":5,
			"componentType":5126,
			"count":1310,
			"type":"VEC3"
		},
		{
			"bufferView":6,
			"componentType":5126,
			"count":1310,
			"type":"VEC2"
		},
		{
			"bufferView":7,
			"componentType":5123,
			"count":4098,
			"type":"SCALAR"
		},
		{
			"bufferView":8,
			"componentType":5126,
			"count":3243,
			"max":[
				45.38490295410156,
				-1.0158783197402954,
				17.3328857421875
			],
			"min":[
				-0.6205959320068359,
				-8.2818603515625,
				-12.490394592285156
			],
			"type":"VEC3"
		},
		{
			"bufferView":9,
			"componentType":5126,
			"count":3243,
			"type":"VEC3"
		},
		{
			"bufferView":10,
			"componentType":5126,
			"count":3243,
			"type":"VEC2"
		},
		{
			"bufferView":11,
			"componentType":5123,
			"count":8496,
			"type":"SCALAR"
		},
		{
			"bufferView":12,
			"componentType":5126,
			"count":1808,
			"max":[
				46.04302215576172,
				24.797605514526367,
				27.351757049560547
			],
			"min":[
				-5.346621513366699,
				-9.498064041137695,
				-14.973365783691406
			],
			"type":"VEC3"
		},
		{
			"bufferView":13,
			"componentType":5126,
			"count":1808,
			"type":"VEC3"
		},
		{
			"bufferView":14,
			"componentType":5126,
			"count":1808,
			"type":"VEC2"
		},
		{
			"bufferView":15,
			"componentType":5123,
			"count":3969,
			"type":"SCALAR"
		},
		{
			"bufferView":16,
			"componentType":5126,
			"count":2078,
			"max":[
				41.03455352783203,
				24.797605514526367,
				22.713624954223633
			],
			"min":[
				-5.346621513366699,
				-11.253582000732422,
				-14.006689071655273
			],
			"type":"VEC3"
		},
		{
			"bufferView":17,
			"componentType":5126,
			"count":2078,
			"type":"VEC3"
		},
		{
			"bufferView":18,
			"componentType":5126,
			"count":2078,
			"type":"VEC2"
		},
		{
			"bufferView":19,
			"componentType":5123,
			"count":5526,
			"type":"SCALAR"
		},
		{
			"bufferView":20,
			"componentType":5126,
			"count":1974,
			"max":[
				40.43748474121094,
				22.806886672973633,
				25.71340560913086
			],
			"min":[
				-4.7495574951171875,
				-8.210590362548828,
				-13.104515075683594
			],
			"type":"VEC3"
		},
		{
			"bufferView":21,
			"componentType":5126,
			"count":1974,
			"type":"VEC3"
		},
		{
			"bufferView":22,
			"componentType":5126,
			"count":1974,
			"type":"VEC2"
		},
		{
			"bufferView":23,
			"componentType":5123,
			"count":4848,
			"type":"SCALAR"
		},
		{
			"bufferView":24,
			"componentType":5126,
			"count":576,
			"max":[
				34.77794647216797,
				-3.572392463684082,
				17.711755752563477
			],
			"min":[
				1.0458781719207764,
				-8.350156784057617,
				-0.4999995231628418
			],
			"type":"VEC3"
		},
		{
			"bufferView":25,
			"componentType":5126,
			"count":576,
			"type":"VEC3"
		},
		{
			"bufferView":26,
			"componentType":5126,
			"count":576,
			"type":"VEC2"
		},
		{
			"bufferView":27,
			"componentType":5123,
			"count":864,
			"type":"SCALAR"
		},
		{
			"bufferView":28,
			"componentType":5126,
			"count":78,
			"max":[
				35.309844970703125,
				-3.2679190635681152,
				17.465879440307617
			],
			"min":[
				0.3780841827392578,
				-8.196871757507324,
				4.76837158203125e-07
			],
			"type":"VEC3"
		},
		{
			"bufferView":29,
			"componentType":5126,
			"count":78,
			"type":"VEC3"
		},
		{
			"bufferView":30,
			"componentType":5126,
			"count":78,
			"type":"VEC2"
		},
		{
			"bufferView":31,
			"componentType":5123,
			"count":234,
			"type":"SCALAR"
		},
		{
			"bufferView":32,
			"componentType":5126,
			"count":338,
			"max":[
				39.03302764892578,
				12.281189918518066,
				18.603994369506836
			],
			"min":[
				-3.3451004028320312,
				-3.2679195404052734,
				-1.1381096839904785
			],
			"type":"VEC3"
		},
		{
			"bufferView":33,
			"componentType":5126,
			"count":338,
			"type":"VEC3"
		},
		{
			"bufferView":34,
			"componentType":5126,
			"count":338,
			"type":"VEC2"
		},
		{
			"bufferView":35,
			"componentType":5123,
			"count":552,
			"type":"SCALAR"
		}
	],
	"bufferViews":[
		{
			"buffer":0,
			"byteLength":24288,
			"byteOffset":0,
			"target":34962
		},
		{
			"buffer":0,
			"byteLength":24288,
			"byteOffset":24288,
			"target":34962
		},
		{
			"buffer":0,
			"byteLength":16192,
			"byteOffset":48576,
			"target":34962
		},
		{
			"buffer":0,
			"byteLength":10848,
			"byteOffset":64768,
			"target":34963
		},
		{
			"buffer":0,
			"byteLength":15720,
			"byteOffset":75616,
			"target":34962
		},
		{
			"buffer":0,
			"byteLength":15720,
			"byteOffset":91336,
			"target":34962
		},
		{
			"buffer":0,
			"byteLength":10480,
			"byteOffset":107056,
			"target":34962
		},
		{
			"buffer":0,
			"byteLength":8196,
			"byteOffset":117536,
			"target":34963
		},
		{
			"buffer":0,
			"byteLength":38916,
			"byteOffset":125732,
			"target":34962
		},
		{
			"buffer":0,
			"byteLength":38916,
			"byteOffset":164648,
			"target":34962
		},
		{
			"buffer":0,
			"byteLength":25944,
			"byteOffset":203564,
			"target":34962
		},
		{
			"buffer":0,
			"byteLength":16992,
			"byteOffset":229508,
			"target":34963
		},
		{
			"buffer":0,
			"byteLength":21696,
			"byteOffset":246500,
			"target":34962
		},
		{
			"buffer":0,
			"byteLength":21696,
			"byteOffset":268196,
			"target":34962
		},
		{
			"buffer":0,
			"byteLength":14464,
			"byteOffset":289892,
			"target":34962
		},
		{
			"buffer":0,
			"byteLength":7938,
			"byteOffset":304356,
			"target":34963
		},
		{
			"buffer":0,
			"byteLength":24936,
			"byteOffset":312296,
			"target":34962
		},
		{
			"buffer":0,
			"byteLength":24936,
			"byteOffset":337232,
			"target":34962
		},
		{
			"buffer":0,
			"byteLength":16624,
			"byteOffset":362168,
			"target":34962
		},
		{
			"buffer":0,
			"byteLength":11052,
			"byteOffset":378792,
			"target":34963
		},
		{
			"buffer":0,
			"byteLength":23688,
			"byteOffset":389844,
			"target":34962
		},
		{
			"buffer":0,
			"byteLength":23688,
			"byteOffset":413532,
			"target":34962
		},
		{
			"buffer":0,
			"byteLength":15792,
			"byteOffset":437220,
			"target":34962
		},
		{
			"buffer":0,
			"byteLength":9696,
			"byteOffset":453012,
			"target":34963
		},
		{
			"buffer":0,
			"byteLength":6912,
			"byteOffset":462708,
			"target":34962
		},
		{
			"buffer":0,
			"byteLength":6912,
			"byteOffset":469620,
			"target":34962
		},
		{
			"buffer":0,
			"byteLength":4608,
			"byteOffset":476532,
			"target":34962
		},
		{
			"buffer":0,
			"byteLength":1728,
			"byteOffset":481140,
			"target":34963
		},
		{
			"buffer":0,
			"byteLength":936,
			"byteOffset":482868,
			"target":34962
		},
		{
			"buffer":0,
			"byteLength":936,
			"byteOffset":483804,
			"target":34962
		},
		{
			"buffer":0,
			"byteLength":624,
			"byteOffset":484740,
			"target":34962
		},
		{
			"buffer":0,
			"byteLength":468,
			"byteOffset":485364,
			"target":34963
		},
		{
			"buffer":0,
			"byteLength":4056,
			"byteOffset":485832,
			"target":34962
		},
		{
			"buffer":0,
			"byteLength":4056,
			"byteOffset":489888,
			"target":34962
		},
		{
			"buffer":0,
			"byteLength":2704,
			"byteOffset":493944,
			"target":34962
		},
		{
			"buffer":0,
			"byteLength":1104,
			"byteOffset":496648,
			"target":34963
		}
	],
	"buffers":[
		{
			"byteLength":497752,
			"uri":"timber.bin"
		}
	]
}
