{
	"asset":{
		"generator":"Khronos glTF Blender I/O v4.3.47",
		"version":"2.0"
	},
	"extensionsUsed":[
		"KHR_materials_clearcoat"
	],
	"scene":0,
	"scenes":[
		{
			"name":"Scene",
			"nodes":[
				4
			]
		}
	],
	"nodes":[
		{
			"mesh":0,
			"name":"Object_4"
		},
		{
			"children":[
				0
			],
			"name":"Cylinder_0"
		},
		{
			"children":[
				1
			],
			"name":"GLTF_SceneRootNode",
			"rotation":[
				0.70710688829422,
				0,
				0,
				0.7071066498756409
			]
		},
		{
			"children":[
				2
			],
			"name":"root"
		},
		{
			"children":[
				3
			],
			"name":"Sketchfab_model.001",
			"rotation":[
				-0.70710688829422,
				0,
				0,
				0.7071066498756409
			],
			"scale":[
				7.503259181976318,
				7.503260135650635,
				7.503260135650635
			],
			"translation":[
				0,
				22.918678283691406,
				0
			]
		}
	],
	"materials":[
		{
			"alphaMode":"BLEND",
			"doubleSided":true,
			"emissiveFactor":[
				0.10000000149011612,
				0.06435635685920715,
				0
			],
			"extensions":{
				"KHR_materials_clearcoat":{
					"clearcoatFactor":0.20000000298023224,
					"clearcoatRoughnessFactor":0.03999999910593033
				}
			},
			"name":"Scene_-_Root",
			"pbrMetallicRoughness":{
				"baseColorFactor":[
					1,
					1,
					1,
					0.699999988079071
				],
				"metallicFactor":0.32882604002952576
			}
		}
	],
	"meshes":[
		{
			"name":"Object_0",
			"primitives":[
				{
					"attributes":{
						"POSITION":0,
						"NORMAL":1,
						"TEXCOORD_0":2
					},
					"indices":3,
					"material":0
				}
			]
		}
	],
	"accessors":[
		{
			"bufferView":0,
			"componentType":5126,
			"count":680,
			"max":[
				0.8513734340667725,
				0.32684326171875,
				0.895346999168396
			],
			"min":[
				-0.8204935193061829,
				-1.68632173538208,
				-0.7876612544059753
			],
			"type":"VEC3"
		},
		{
			"bufferView":1,
			"componentType":5126,
			"count":680,
			"type":"VEC3"
		},
		{
			"bufferView":2,
			"componentType":5126,
			"count":680,
			"type":"VEC2"
		},
		{
			"bufferView":3,
			"componentType":5123,
			"count":3648,
			"type":"SCALAR"
		}
	],
	"bufferViews":[
		{
			"buffer":0,
			"byteLength":8160,
			"byteOffset":0,
			"target":34962
		},
		{
			"buffer":0,
			"byteLength":8160,
			"byteOffset":8160,
			"target":34962
		},
		{
			"buffer":0,
			"byteLength":5440,
			"byteOffset":16320,
			"target":34962
		},
		{
			"buffer":0,
			"byteLength":7296,
			"byteOffset":21760,
			"target":34963
		}
	],
	"buffers":[
		{
			"byteLength":29056,
			"uri":"tornado.bin"
		}
	]
}
