{
	"asset":{
		"generator":"Khronos glTF Blender I/O v4.3.47",
		"version":"2.0"
	},
	"extensionsUsed":[
		"KHR_materials_specular"
	],
	"scene":0,
	"scenes":[
		{
			"name":"Scene",
			"nodes":[
				0
			]
		}
	],
	"nodes":[
		{
			"mesh":0,
			"name":"land_land.001",
			"rotation":[
				0.7071068286895752,
				0,
				0,
				0.7071068286895752
			]
		}
	],
	"materials":[
		{
			"doubleSided":true,
			"extensions":{
				"KHR_materials_specular":{
					"specularFactor":0
				}
			},
			"name":"land.001",
			"normalTexture":{
				"index":0
			},
			"pbrMetallicRoughness":{
				"baseColorTexture":{
					"index":1
				},
				"metallicFactor":0,
				"metallicRoughnessTexture":{
					"index":2
				}
			}
		},
		{
			"doubleSided":true,
			"extensions":{
				"KHR_materials_specular":{
					"specularFactor":0
				}
			},
			"name":"column.001",
			"normalTexture":{
				"index":3
			},
			"pbrMetallicRoughness":{
				"baseColorTexture":{
					"index":4
				},
				"metallicFactor":0,
				"metallicRoughnessTexture":{
					"index":5
				}
			}
		},
		{
			"doubleSided":true,
			"extensions":{
				"KHR_materials_specular":{
					"specularFactor":0
				}
			},
			"name":"stones.001",
			"normalTexture":{
				"index":6
			},
			"pbrMetallicRoughness":{
				"baseColorTexture":{
					"index":7
				},
				"metallicFactor":0,
				"metallicRoughnessTexture":{
					"index":8
				}
			}
		}
	],
	"meshes":[
		{
			"name":"land_land.002",
			"primitives":[
				{
					"attributes":{
						"POSITION":0,
						"NORMAL":1,
						"TEXCOORD_0":2
					},
					"indices":3,
					"material":0
				},
				{
					"attributes":{
						"POSITION":4,
						"NORMAL":5,
						"TEXCOORD_0":6
					},
					"indices":7,
					"material":1
				},
				{
					"attributes":{
						"POSITION":8,
						"NORMAL":9,
						"TEXCOORD_0":10
					},
					"indices":11,
					"material":2
				}
			]
		}
	],
	"textures":[
		{
			"sampler":0,
			"source":0
		},
		{
			"sampler":0,
			"source":1
		},
		{
			"sampler":0,
			"source":2
		},
		{
			"sampler":0,
			"source":3
		},
		{
			"sampler":0,
			"source":4
		},
		{
			"sampler":0,
			"source":5
		},
		{
			"sampler":0,
			"source":6
		},
		{
			"sampler":0,
			"source":7
		},
		{
			"sampler":0,
			"source":8
		}
	],
	"images":[
		{
			"mimeType":"image/jpeg",
			"name":"land_norm",
			"uri":"land_norm.jpg"
		},
		{
			"mimeType":"image/jpeg",
			"name":"land_diff",
			"uri":"land_diff.jpg"
		},
		{
			"mimeType":"image/png",
			"name":"land_rough",
			"uri":"land_rough.png"
		},
		{
			"mimeType":"image/jpeg",
			"name":"colunm_norm",
			"uri":"colunm_norm.jpg"
		},
		{
			"mimeType":"image/jpeg",
			"name":"colunm_diff",
			"uri":"colunm_diff.jpg"
		},
		{
			"mimeType":"image/png",
			"name":"colunm_rough",
			"uri":"colunm_rough.png"
		},
		{
			"mimeType":"image/jpeg",
			"name":"stones_norm",
			"uri":"stones_norm.jpg"
		},
		{
			"mimeType":"image/jpeg",
			"name":"stones_diff",
			"uri":"stones_diff.jpg"
		},
		{
			"mimeType":"image/png",
			"name":"stones_rough",
			"uri":"stones_rough.png"
		}
	],
	"accessors":[
		{
			"bufferView":0,
			"componentType":5126,
			"count":4778,
			"max":[
				8.694121360778809,
				8.274285316467285,
				10.134533882141113
			],
			"min":[
				-8.839613914489746,
				-9.057208061218262,
				-4.181061744689941
			],
			"type":"VEC3"
		},
		{
			"bufferView":1,
			"componentType":5126,
			"count":4778,
			"type":"VEC3"
		},
		{
			"bufferView":2,
			"componentType":5126,
			"count":4778,
			"type":"VEC2"
		},
		{
			"bufferView":3,
			"componentType":5123,
			"count":26868,
			"type":"SCALAR"
		},
		{
			"bufferView":4,
			"componentType":5126,
			"count":13376,
			"max":[
				7.142880439758301,
				6.3682475090026855,
				-1.7831568717956543
			],
			"min":[
				-6.566389083862305,
				-3.4365036487579346,
				-9.0763578414917
			],
			"type":"VEC3"
		},
		{
			"bufferView":5,
			"componentType":5126,
			"count":13376,
			"type":"VEC3"
		},
		{
			"bufferView":6,
			"componentType":5126,
			"count":13376,
			"type":"VEC2"
		},
		{
			"bufferView":7,
			"componentType":5123,
			"count":66684,
			"type":"SCALAR"
		},
		{
			"bufferView":8,
			"componentType":5126,
			"count":22186,
			"max":[
				12.439749717712402,
				11.662442207336426,
				15.190982818603516
			],
			"min":[
				-9.366419792175293,
				-12.593588829040527,
				-5.078478813171387
			],
			"type":"VEC3"
		},
		{
			"bufferView":9,
			"componentType":5126,
			"count":22186,
			"type":"VEC3"
		},
		{
			"bufferView":10,
			"componentType":5126,
			"count":22186,
			"type":"VEC2"
		},
		{
			"bufferView":11,
			"componentType":5123,
			"count":104520,
			"type":"SCALAR"
		}
	],
	"bufferViews":[
		{
			"buffer":0,
			"byteLength":57336,
			"byteOffset":0,
			"target":34962
		},
		{
			"buffer":0,
			"byteLength":57336,
			"byteOffset":57336,
			"target":34962
		},
		{
			"buffer":0,
			"byteLength":38224,
			"byteOffset":114672,
			"target":34962
		},
		{
			"buffer":0,
			"byteLength":53736,
			"byteOffset":152896,
			"target":34963
		},
		{
			"buffer":0,
			"byteLength":160512,
			"byteOffset":206632,
			"target":34962
		},
		{
			"buffer":0,
			"byteLength":160512,
			"byteOffset":367144,
			"target":34962
		},
		{
			"buffer":0,
			"byteLength":107008,
			"byteOffset":527656,
			"target":34962
		},
		{
			"buffer":0,
			"byteLength":133368,
			"byteOffset":634664,
			"target":34963
		},
		{
			"buffer":0,
			"byteLength":266232,
			"byteOffset":768032,
			"target":34962
		},
		{
			"buffer":0,
			"byteLength":266232,
			"byteOffset":1034264,
			"target":34962
		},
		{
			"buffer":0,
			"byteLength":177488,
			"byteOffset":1300496,
			"target":34962
		},
		{
			"buffer":0,
			"byteLength":209040,
			"byteOffset":1477984,
			"target":34963
		}
	],
	"samplers":[
		{
			"magFilter":9729,
			"minFilter":9987
		}
	],
	"buffers":[
		{
			"byteLength":1687024,
			"uri":"StoneIsland.bin"
		}
	]
}
