{
	"asset":{
		"generator":"Khronos glTF Blender I/O v4.3.47",
		"version":"2.0"
	},
	"extensionsUsed":[
		"KHR_materials_specular",
		"KHR_materials_ior"
	],
	"scene":0,
	"scenes":[
		{
			"name":"Scene",
			"nodes":[
				0
			]
		}
	],
	"nodes":[
		{
			"mesh":0,
			"name":"NAVEFIN",
			"rotation":[
				0.7071068286895752,
				0,
				0,
				0.7071068286895752
			]
		}
	],
	"materials":[
		{
			"doubleSided":true,
			"extensions":{
				"KHR_materials_specular":{
					"specularFactor":0
				}
			},
			"name":"lambert20SG",
			"normalTexture":{
				"index":0,
				"texCoord":1
			},
			"pbrMetallicRoughness":{
				"baseColorTexture":{
					"index":1
				},
				"metallicRoughnessTexture":{
					"index":2,
					"texCoord":1
				}
			}
		},
		{
			"doubleSided":true,
			"extensions":{
				"KHR_materials_specular":{
					"specularFactor":0
				}
			},
			"name":"lambert22SG",
			"normalTexture":{
				"index":3,
				"texCoord":1
			},
			"pbrMetallicRoughness":{
				"baseColorTexture":{
					"index":4
				},
				"metallicRoughnessTexture":{
					"index":5,
					"texCoord":1
				}
			}
		},
		{
			"doubleSided":true,
			"extensions":{
				"KHR_materials_specular":{
					"specularFactor":0
				}
			},
			"name":"lambert19SG",
			"normalTexture":{
				"index":6,
				"texCoord":1
			},
			"pbrMetallicRoughness":{
				"baseColorTexture":{
					"index":7
				},
				"metallicRoughnessTexture":{
					"index":8,
					"texCoord":1
				}
			}
		},
		{
			"doubleSided":true,
			"extensions":{
				"KHR_materials_specular":{
					"specularFactor":0
				}
			},
			"name":"lambert15SG",
			"normalTexture":{
				"index":9,
				"texCoord":1
			},
			"pbrMetallicRoughness":{
				"baseColorTexture":{
					"index":10
				},
				"metallicRoughnessTexture":{
					"index":11,
					"texCoord":1
				}
			}
		},
		{
			"doubleSided":true,
			"extensions":{
				"KHR_materials_specular":{
					"specularFactor":0
				}
			},
			"name":"lambert21SG",
			"normalTexture":{
				"index":12,
				"texCoord":1
			},
			"pbrMetallicRoughness":{
				"baseColorTexture":{
					"index":13
				},
				"metallicRoughnessTexture":{
					"index":14,
					"texCoord":1
				}
			}
		},
		{
			"doubleSided":true,
			"extensions":{
				"KHR_materials_specular":{
					"specularFactor":0
				},
				"KHR_materials_ior":{
					"ior":1.2999999523162842
				}
			},
			"name":"lambert16SG",
			"pbrMetallicRoughness":{
				"baseColorTexture":{
					"index":15
				},
				"metallicRoughnessTexture":{
					"index":16,
					"texCoord":1
				}
			}
		}
	],
	"meshes":[
		{
			"name":"NAVEFIN",
			"primitives":[
				{
					"attributes":{
						"POSITION":0,
						"NORMAL":1,
						"TEXCOORD_0":2,
						"TEXCOORD_1":3
					},
					"indices":4,
					"material":0
				},
				{
					"attributes":{
						"POSITION":5,
						"NORMAL":6,
						"TEXCOORD_0":7,
						"TEXCOORD_1":8
					},
					"indices":9,
					"material":1
				},
				{
					"attributes":{
						"POSITION":10,
						"NORMAL":11,
						"TEXCOORD_0":12,
						"TEXCOORD_1":13
					},
					"indices":14,
					"material":2
				},
				{
					"attributes":{
						"POSITION":15,
						"NORMAL":16,
						"TEXCOORD_0":17,
						"TEXCOORD_1":18
					},
					"indices":19,
					"material":3
				},
				{
					"attributes":{
						"POSITION":20,
						"NORMAL":21,
						"TEXCOORD_0":22,
						"TEXCOORD_1":23
					},
					"indices":24,
					"material":4
				},
				{
					"attributes":{
						"POSITION":25,
						"NORMAL":26,
						"TEXCOORD_0":27,
						"TEXCOORD_1":28
					},
					"indices":29,
					"material":5
				}
			]
		}
	],
	"textures":[
		{
			"sampler":0,
			"source":0
		},
		{
			"sampler":0,
			"source":1
		},
		{
			"sampler":0,
			"source":2
		},
		{
			"sampler":0,
			"source":3
		},
		{
			"sampler":0,
			"source":4
		},
		{
			"sampler":0,
			"source":5
		},
		{
			"sampler":0,
			"source":6
		},
		{
			"sampler":0,
			"source":7
		},
		{
			"sampler":0,
			"source":8
		},
		{
			"sampler":0,
			"source":9
		},
		{
			"sampler":0,
			"source":10
		},
		{
			"sampler":0,
			"source":11
		},
		{
			"sampler":0,
			"source":12
		},
		{
			"sampler":0,
			"source":13
		},
		{
			"sampler":0,
			"source":14
		},
		{
			"sampler":0,
			"source":15
		},
		{
			"sampler":0,
			"source":16
		}
	],
	"images":[
		{
			"mimeType":"image/png",
			"name":"lambert20SG_Grungit",
			"uri":"lambert20SG_Grungit.png"
		},
		{
			"mimeType":"image/png",
			"name":"circulobase",
			"uri":"circulobase.png"
		},
		{
			"mimeType":"image/png",
			"name":"lambert20SG_Grungit",
			"uri":"lambert20SG_Grungit-1.png"
		},
		{
			"mimeType":"image/png",
			"name":"lambert22SG_Grungit",
			"uri":"lambert22SG_Grungit.png"
		},
		{
			"mimeType":"image/png",
			"name":"cca\u00f1on",
			"uri":"cca%C3%B1on.png"
		},
		{
			"mimeType":"image/png",
			"name":"lambert22SG_Grungit",
			"uri":"lambert22SG_Grungit-1.png"
		},
		{
			"mimeType":"image/png",
			"name":"lambert19SG_Grungit",
			"uri":"lambert19SG_Grungit.png"
		},
		{
			"mimeType":"image/png",
			"name":"placa2",
			"uri":"placa2.png"
		},
		{
			"mimeType":"image/png",
			"name":"lambert19SG_Grungit",
			"uri":"lambert19SG_Grungit-1.png"
		},
		{
			"mimeType":"image/png",
			"name":"lambert15SG_Grungit",
			"uri":"lambert15SG_Grungit.png"
		},
		{
			"mimeType":"image/png",
			"name":"cilindro",
			"uri":"cilindro.png"
		},
		{
			"mimeType":"image/png",
			"name":"lambert15SG_Grungit",
			"uri":"lambert15SG_Grungit-1.png"
		},
		{
			"mimeType":"image/png",
			"name":"lambert21SG_Grungit",
			"uri":"lambert21SG_Grungit.png"
		},
		{
			"mimeType":"image/png",
			"name":"clinidrofuera",
			"uri":"clinidrofuera.png"
		},
		{
			"mimeType":"image/png",
			"name":"lambert21SG_Grungit",
			"uri":"lambert21SG_Grungit-1.png"
		},
		{
			"mimeType":"image/png",
			"name":"cupula2",
			"uri":"cupula2.png"
		},
		{
			"mimeType":"image/png",
			"name":"lambert16SG_Grungit",
			"uri":"lambert16SG_Grungit.png"
		}
	],
	"accessors":[
		{
			"bufferView":0,
			"componentType":5126,
			"count":7042,
			"max":[
				13.713452339172363,
				12.016575813293457,
				0.03902199864387512
			],
			"min":[
				-10.471980094909668,
				-13.463213920593262,
				-19.87211036682129
			],
			"type":"VEC3"
		},
		{
			"bufferView":1,
			"componentType":5126,
			"count":7042,
			"type":"VEC3"
		},
		{
			"bufferView":2,
			"componentType":5126,
			"count":7042,
			"type":"VEC2"
		},
		{
			"bufferView":3,
			"componentType":5126,
			"count":7042,
			"type":"VEC2"
		},
		{
			"bufferView":4,
			"componentType":5123,
			"count":33198,
			"type":"SCALAR"
		},
		{
			"bufferView":5,
			"componentType":5126,
			"count":1867,
			"max":[
				9.170218467712402,
				10.166990280151367,
				-7.810641765594482
			],
			"min":[
				-10.701958656311035,
				-10.019545555114746,
				-15.390401840209961
			],
			"type":"VEC3"
		},
		{
			"bufferView":6,
			"componentType":5126,
			"count":1867,
			"type":"VEC3"
		},
		{
			"bufferView":7,
			"componentType":5126,
			"count":1867,
			"type":"VEC2"
		},
		{
			"bufferView":8,
			"componentType":5126,
			"count":1867,
			"type":"VEC2"
		},
		{
			"bufferView":9,
			"componentType":5123,
			"count":4770,
			"type":"SCALAR"
		},
		{
			"bufferView":10,
			"componentType":5126,
			"count":1412,
			"max":[
				6.457009792327881,
				6.915204048156738,
				-6.878383159637451
			],
			"min":[
				-7.109883785247803,
				-6.871097087860107,
				-16.499725341796875
			],
			"type":"VEC3"
		},
		{
			"bufferView":11,
			"componentType":5126,
			"count":1412,
			"type":"VEC3"
		},
		{
			"bufferView":12,
			"componentType":5126,
			"count":1412,
			"type":"VEC2"
		},
		{
			"bufferView":13,
			"componentType":5126,
			"count":1412,
			"type":"VEC2"
		},
		{
			"bufferView":14,
			"componentType":5123,
			"count":4950,
			"type":"SCALAR"
		},
		{
			"bufferView":15,
			"componentType":5126,
			"count":92,
			"max":[
				6.185812950134277,
				6.152531147003174,
				-6.4940290451049805
			],
			"min":[
				-6.051846027374268,
				-6.152530193328857,
				-16.99921417236328
			],
			"type":"VEC3"
		},
		{
			"bufferView":16,
			"componentType":5126,
			"count":92,
			"type":"VEC3"
		},
		{
			"bufferView":17,
			"componentType":5126,
			"count":92,
			"type":"VEC2"
		},
		{
			"bufferView":18,
			"componentType":5126,
			"count":92,
			"type":"VEC2"
		},
		{
			"bufferView":19,
			"componentType":5123,
			"count":360,
			"type":"SCALAR"
		},
		{
			"bufferView":20,
			"componentType":5126,
			"count":2316,
			"max":[
				6.812517166137695,
				6.849446773529053,
				-16.771183013916016
			],
			"min":[
				-6.907044887542725,
				-6.897243022918701,
				-21.03194236755371
			],
			"type":"VEC3"
		},
		{
			"bufferView":21,
			"componentType":5126,
			"count":2316,
			"type":"VEC3"
		},
		{
			"bufferView":22,
			"componentType":5126,
			"count":2316,
			"type":"VEC2"
		},
		{
			"bufferView":23,
			"componentType":5126,
			"count":2316,
			"type":"VEC2"
		},
		{
			"bufferView":24,
			"componentType":5123,
			"count":4554,
			"type":"SCALAR"
		},
		{
			"bufferView":25,
			"componentType":5126,
			"count":12801,
			"max":[
				6.007903099060059,
				6.296060085296631,
				-20.92003631591797
			],
			"min":[
				-6.338097095489502,
				-6.175901889801025,
				-28.907978057861328
			],
			"type":"VEC3"
		},
		{
			"bufferView":26,
			"componentType":5126,
			"count":12801,
			"type":"VEC3"
		},
		{
			"bufferView":27,
			"componentType":5126,
			"count":12801,
			"type":"VEC2"
		},
		{
			"bufferView":28,
			"componentType":5126,
			"count":12801,
			"type":"VEC2"
		},
		{
			"bufferView":29,
			"componentType":5123,
			"count":73728,
			"type":"SCALAR"
		}
	],
	"bufferViews":[
		{
			"buffer":0,
			"byteLength":84504,
			"byteOffset":0,
			"target":34962
		},
		{
			"buffer":0,
			"byteLength":84504,
			"byteOffset":84504,
			"target":34962
		},
		{
			"buffer":0,
			"byteLength":56336,
			"byteOffset":169008,
			"target":34962
		},
		{
			"buffer":0,
			"byteLength":56336,
			"byteOffset":225344,
			"target":34962
		},
		{
			"buffer":0,
			"byteLength":66396,
			"byteOffset":281680,
			"target":34963
		},
		{
			"buffer":0,
			"byteLength":22404,
			"byteOffset":348076,
			"target":34962
		},
		{
			"buffer":0,
			"byteLength":22404,
			"byteOffset":370480,
			"target":34962
		},
		{
			"buffer":0,
			"byteLength":14936,
			"byteOffset":392884,
			"target":34962
		},
		{
			"buffer":0,
			"byteLength":14936,
			"byteOffset":407820,
			"target":34962
		},
		{
			"buffer":0,
			"byteLength":9540,
			"byteOffset":422756,
			"target":34963
		},
		{
			"buffer":0,
			"byteLength":16944,
			"byteOffset":432296,
			"target":34962
		},
		{
			"buffer":0,
			"byteLength":16944,
			"byteOffset":449240,
			"target":34962
		},
		{
			"buffer":0,
			"byteLength":11296,
			"byteOffset":466184,
			"target":34962
		},
		{
			"buffer":0,
			"byteLength":11296,
			"byteOffset":477480,
			"target":34962
		},
		{
			"buffer":0,
			"byteLength":9900,
			"byteOffset":488776,
			"target":34963
		},
		{
			"buffer":0,
			"byteLength":1104,
			"byteOffset":498676,
			"target":34962
		},
		{
			"buffer":0,
			"byteLength":1104,
			"byteOffset":499780,
			"target":34962
		},
		{
			"buffer":0,
			"byteLength":736,
			"byteOffset":500884,
			"target":34962
		},
		{
			"buffer":0,
			"byteLength":736,
			"byteOffset":501620,
			"target":34962
		},
		{
			"buffer":0,
			"byteLength":720,
			"byteOffset":502356,
			"target":34963
		},
		{
			"buffer":0,
			"byteLength":27792,
			"byteOffset":503076,
			"target":34962
		},
		{
			"buffer":0,
			"byteLength":27792,
			"byteOffset":530868,
			"target":34962
		},
		{
			"buffer":0,
			"byteLength":18528,
			"byteOffset":558660,
			"target":34962
		},
		{
			"buffer":0,
			"byteLength":18528,
			"byteOffset":577188,
			"target":34962
		},
		{
			"buffer":0,
			"byteLength":9108,
			"byteOffset":595716,
			"target":34963
		},
		{
			"buffer":0,
			"byteLength":153612,
			"byteOffset":604824,
			"target":34962
		},
		{
			"buffer":0,
			"byteLength":153612,
			"byteOffset":758436,
			"target":34962
		},
		{
			"buffer":0,
			"byteLength":102408,
			"byteOffset":912048,
			"target":34962
		},
		{
			"buffer":0,
			"byteLength":102408,
			"byteOffset":1014456,
			"target":34962
		},
		{
			"buffer":0,
			"byteLength":147456,
			"byteOffset":1116864,
			"target":34963
		}
	],
	"samplers":[
		{
			"magFilter":9729,
			"minFilter":9987
		}
	],
	"buffers":[
		{
			"byteLength":1264320,
			"uri":"Time%20Machine%2075.bin"
		}
	]
}
