{
	"asset":{
		"generator":"Khronos glTF Blender I/O v4.3.47",
		"version":"2.0"
	},
	"extensionsUsed":[
		"KHR_materials_specular",
		"KHR_materials_ior"
	],
	"scene":0,
	"scenes":[
		{
			"name":"Scene",
			"nodes":[
				0
			]
		}
	],
	"nodes":[
		{
			"mesh":0,
			"name":"NAVEFIN.006",
			"rotation":[
				0.70710688829422,
				0,
				0,
				0.7071066498756409
			]
		}
	],
	"materials":[
		{
			"doubleSided":true,
			"extensions":{
				"KHR_materials_specular":{
					"specularFactor":0
				}
			},
			"name":"lambert21SG",
			"normalTexture":{
				"index":0,
				"texCoord":1
			},
			"pbrMetallicRoughness":{
				"baseColorTexture":{
					"index":1
				},
				"metallicRoughnessTexture":{
					"index":2,
					"texCoord":1
				}
			}
		},
		{
			"doubleSided":true,
			"extensions":{
				"KHR_materials_specular":{
					"specularFactor":0
				},
				"KHR_materials_ior":{
					"ior":1.2999999523162842
				}
			},
			"name":"lambert16SG",
			"pbrMetallicRoughness":{
				"baseColorTexture":{
					"index":3
				},
				"metallicRoughnessTexture":{
					"index":4,
					"texCoord":1
				}
			}
		},
		{
			"doubleSided":true,
			"extensions":{
				"KHR_materials_specular":{
					"specularFactor":0
				}
			},
			"name":"lambert20SG",
			"normalTexture":{
				"index":5,
				"texCoord":1
			},
			"pbrMetallicRoughness":{
				"baseColorTexture":{
					"index":6
				},
				"metallicRoughnessTexture":{
					"index":7,
					"texCoord":1
				}
			}
		},
		{
			"doubleSided":true,
			"extensions":{
				"KHR_materials_specular":{
					"specularFactor":0
				}
			},
			"name":"lambert22SG",
			"normalTexture":{
				"index":8,
				"texCoord":1
			},
			"pbrMetallicRoughness":{
				"baseColorTexture":{
					"index":9
				},
				"metallicRoughnessTexture":{
					"index":10,
					"texCoord":1
				}
			}
		},
		{
			"doubleSided":true,
			"extensions":{
				"KHR_materials_specular":{
					"specularFactor":0
				}
			},
			"name":"lambert19SG",
			"normalTexture":{
				"index":11,
				"texCoord":1
			},
			"pbrMetallicRoughness":{
				"baseColorTexture":{
					"index":12
				},
				"metallicRoughnessTexture":{
					"index":13,
					"texCoord":1
				}
			}
		},
		{
			"doubleSided":true,
			"extensions":{
				"KHR_materials_specular":{
					"specularFactor":0
				}
			},
			"name":"lambert15SG",
			"normalTexture":{
				"index":14,
				"texCoord":1
			},
			"pbrMetallicRoughness":{
				"baseColorTexture":{
					"index":15
				},
				"metallicRoughnessTexture":{
					"index":16,
					"texCoord":1
				}
			}
		}
	],
	"meshes":[
		{
			"name":"NAVEFIN.005",
			"primitives":[
				{
					"attributes":{
						"POSITION":0,
						"NORMAL":1,
						"TEXCOORD_0":2,
						"TEXCOORD_1":3
					},
					"indices":4,
					"material":0
				},
				{
					"attributes":{
						"POSITION":5,
						"NORMAL":6,
						"TEXCOORD_0":7,
						"TEXCOORD_1":8
					},
					"indices":9,
					"material":1
				},
				{
					"attributes":{
						"POSITION":10,
						"NORMAL":11,
						"TEXCOORD_0":12,
						"TEXCOORD_1":13
					},
					"indices":14,
					"material":2
				},
				{
					"attributes":{
						"POSITION":15,
						"NORMAL":16,
						"TEXCOORD_0":17,
						"TEXCOORD_1":18
					},
					"indices":19,
					"material":3
				},
				{
					"attributes":{
						"POSITION":20,
						"NORMAL":21,
						"TEXCOORD_0":22,
						"TEXCOORD_1":23
					},
					"indices":24,
					"material":4
				},
				{
					"attributes":{
						"POSITION":25,
						"NORMAL":26,
						"TEXCOORD_0":27,
						"TEXCOORD_1":28
					},
					"indices":29,
					"material":5
				}
			]
		}
	],
	"textures":[
		{
			"sampler":0,
			"source":0
		},
		{
			"sampler":0,
			"source":1
		},
		{
			"sampler":0,
			"source":2
		},
		{
			"sampler":0,
			"source":3
		},
		{
			"sampler":0,
			"source":4
		},
		{
			"sampler":0,
			"source":5
		},
		{
			"sampler":0,
			"source":6
		},
		{
			"sampler":0,
			"source":7
		},
		{
			"sampler":0,
			"source":8
		},
		{
			"sampler":0,
			"source":9
		},
		{
			"sampler":0,
			"source":10
		},
		{
			"sampler":0,
			"source":11
		},
		{
			"sampler":0,
			"source":12
		},
		{
			"sampler":0,
			"source":13
		},
		{
			"sampler":0,
			"source":14
		},
		{
			"sampler":0,
			"source":15
		},
		{
			"sampler":0,
			"source":16
		}
	],
	"images":[
		{
			"mimeType":"image/png",
			"name":"lambert21SG_Grungit",
			"uri":"lambert21SG_Grungit.png"
		},
		{
			"mimeType":"image/png",
			"name":"clinidrofuera",
			"uri":"clinidrofuera.png"
		},
		{
			"mimeType":"image/png",
			"name":"lambert21SG_Grungit-1",
			"uri":"lambert21SG_Grungit-1.png"
		},
		{
			"mimeType":"image/png",
			"name":"cupula2",
			"uri":"cupula2.png"
		},
		{
			"mimeType":"image/png",
			"name":"lambert16SG_Grungit",
			"uri":"lambert16SG_Grungit.png"
		},
		{
			"mimeType":"image/png",
			"name":"lambert20SG_Grungit",
			"uri":"lambert20SG_Grungit.png"
		},
		{
			"mimeType":"image/png",
			"name":"circulobase",
			"uri":"circulobase.png"
		},
		{
			"mimeType":"image/png",
			"name":"lambert20SG_Grungit-1",
			"uri":"lambert20SG_Grungit-1.png"
		},
		{
			"mimeType":"image/png",
			"name":"lambert22SG_Grungit",
			"uri":"lambert22SG_Grungit.png"
		},
		{
			"mimeType":"image/png",
			"name":"cca\u00f1on",
			"uri":"cca%C3%B1on.png"
		},
		{
			"mimeType":"image/png",
			"name":"lambert22SG_Grungit-1",
			"uri":"lambert22SG_Grungit-1.png"
		},
		{
			"mimeType":"image/png",
			"name":"lambert19SG_Grungit",
			"uri":"lambert19SG_Grungit.png"
		},
		{
			"mimeType":"image/png",
			"name":"placa2",
			"uri":"placa2.png"
		},
		{
			"mimeType":"image/png",
			"name":"lambert19SG_Grungit-1",
			"uri":"lambert19SG_Grungit-1.png"
		},
		{
			"mimeType":"image/png",
			"name":"lambert15SG_Grungit",
			"uri":"lambert15SG_Grungit.png"
		},
		{
			"mimeType":"image/png",
			"name":"cilindro",
			"uri":"cilindro.png"
		},
		{
			"mimeType":"image/png",
			"name":"lambert15SG_Grungit-1",
			"uri":"lambert15SG_Grungit-1.png"
		}
	],
	"accessors":[
		{
			"bufferView":0,
			"componentType":5126,
			"count":2402,
			"max":[
				6.812517166137695,
				6.849446773529053,
				-16.771183013916016
			],
			"min":[
				-6.907044887542725,
				-6.897243022918701,
				-21.03194236755371
			],
			"type":"VEC3"
		},
		{
			"bufferView":1,
			"componentType":5126,
			"count":2402,
			"type":"VEC3"
		},
		{
			"bufferView":2,
			"componentType":5126,
			"count":2402,
			"type":"VEC2"
		},
		{
			"bufferView":3,
			"componentType":5126,
			"count":2402,
			"type":"VEC2"
		},
		{
			"bufferView":4,
			"componentType":5123,
			"count":4554,
			"type":"SCALAR"
		},
		{
			"bufferView":5,
			"componentType":5126,
			"count":12801,
			"max":[
				6.007903099060059,
				6.296060085296631,
				-20.92003631591797
			],
			"min":[
				-6.338097095489502,
				-6.175901889801025,
				-28.907978057861328
			],
			"type":"VEC3"
		},
		{
			"bufferView":6,
			"componentType":5126,
			"count":12801,
			"type":"VEC3"
		},
		{
			"bufferView":7,
			"componentType":5126,
			"count":12801,
			"type":"VEC2"
		},
		{
			"bufferView":8,
			"componentType":5126,
			"count":12801,
			"type":"VEC2"
		},
		{
			"bufferView":9,
			"componentType":5123,
			"count":73728,
			"type":"SCALAR"
		},
		{
			"bufferView":10,
			"componentType":5126,
			"count":5395,
			"max":[
				13.713452339172363,
				12.016575813293457,
				0.03902199864387512
			],
			"min":[
				-10.38657283782959,
				-13.463213920593262,
				-19.87211036682129
			],
			"type":"VEC3"
		},
		{
			"bufferView":11,
			"componentType":5126,
			"count":5395,
			"type":"VEC3"
		},
		{
			"bufferView":12,
			"componentType":5126,
			"count":5395,
			"type":"VEC2"
		},
		{
			"bufferView":13,
			"componentType":5126,
			"count":5395,
			"type":"VEC2"
		},
		{
			"bufferView":14,
			"componentType":5123,
			"count":25332,
			"type":"SCALAR"
		},
		{
			"bufferView":15,
			"componentType":5126,
			"count":742,
			"max":[
				9.170218467712402,
				-3.906550884246826,
				-7.897040843963623
			],
			"min":[
				-4.23662805557251,
				-10.019545555114746,
				-15.38516616821289
			],
			"type":"VEC3"
		},
		{
			"bufferView":16,
			"componentType":5126,
			"count":742,
			"type":"VEC3"
		},
		{
			"bufferView":17,
			"componentType":5126,
			"count":742,
			"type":"VEC2"
		},
		{
			"bufferView":18,
			"componentType":5126,
			"count":742,
			"type":"VEC2"
		},
		{
			"bufferView":19,
			"componentType":5123,
			"count":1908,
			"type":"SCALAR"
		},
		{
			"bufferView":20,
			"componentType":5126,
			"count":1412,
			"max":[
				6.457009792327881,
				6.915204048156738,
				-6.878383159637451
			],
			"min":[
				-7.109883785247803,
				-6.871097087860107,
				-16.499725341796875
			],
			"type":"VEC3"
		},
		{
			"bufferView":21,
			"componentType":5126,
			"count":1412,
			"type":"VEC3"
		},
		{
			"bufferView":22,
			"componentType":5126,
			"count":1412,
			"type":"VEC2"
		},
		{
			"bufferView":23,
			"componentType":5126,
			"count":1412,
			"type":"VEC2"
		},
		{
			"bufferView":24,
			"componentType":5123,
			"count":4950,
			"type":"SCALAR"
		},
		{
			"bufferView":25,
			"componentType":5126,
			"count":92,
			"max":[
				6.185812950134277,
				6.152531147003174,
				-6.4940290451049805
			],
			"min":[
				-6.051846027374268,
				-6.152530193328857,
				-16.99921417236328
			],
			"type":"VEC3"
		},
		{
			"bufferView":26,
			"componentType":5126,
			"count":92,
			"type":"VEC3"
		},
		{
			"bufferView":27,
			"componentType":5126,
			"count":92,
			"type":"VEC2"
		},
		{
			"bufferView":28,
			"componentType":5126,
			"count":92,
			"type":"VEC2"
		},
		{
			"bufferView":29,
			"componentType":5123,
			"count":360,
			"type":"SCALAR"
		}
	],
	"bufferViews":[
		{
			"buffer":0,
			"byteLength":28824,
			"byteOffset":0,
			"target":34962
		},
		{
			"buffer":0,
			"byteLength":28824,
			"byteOffset":28824,
			"target":34962
		},
		{
			"buffer":0,
			"byteLength":19216,
			"byteOffset":57648,
			"target":34962
		},
		{
			"buffer":0,
			"byteLength":19216,
			"byteOffset":76864,
			"target":34962
		},
		{
			"buffer":0,
			"byteLength":9108,
			"byteOffset":96080,
			"target":34963
		},
		{
			"buffer":0,
			"byteLength":153612,
			"byteOffset":105188,
			"target":34962
		},
		{
			"buffer":0,
			"byteLength":153612,
			"byteOffset":258800,
			"target":34962
		},
		{
			"buffer":0,
			"byteLength":102408,
			"byteOffset":412412,
			"target":34962
		},
		{
			"buffer":0,
			"byteLength":102408,
			"byteOffset":514820,
			"target":34962
		},
		{
			"buffer":0,
			"byteLength":147456,
			"byteOffset":617228,
			"target":34963
		},
		{
			"buffer":0,
			"byteLength":64740,
			"byteOffset":764684,
			"target":34962
		},
		{
			"buffer":0,
			"byteLength":64740,
			"byteOffset":829424,
			"target":34962
		},
		{
			"buffer":0,
			"byteLength":43160,
			"byteOffset":894164,
			"target":34962
		},
		{
			"buffer":0,
			"byteLength":43160,
			"byteOffset":937324,
			"target":34962
		},
		{
			"buffer":0,
			"byteLength":50664,
			"byteOffset":980484,
			"target":34963
		},
		{
			"buffer":0,
			"byteLength":8904,
			"byteOffset":1031148,
			"target":34962
		},
		{
			"buffer":0,
			"byteLength":8904,
			"byteOffset":1040052,
			"target":34962
		},
		{
			"buffer":0,
			"byteLength":5936,
			"byteOffset":1048956,
			"target":34962
		},
		{
			"buffer":0,
			"byteLength":5936,
			"byteOffset":1054892,
			"target":34962
		},
		{
			"buffer":0,
			"byteLength":3816,
			"byteOffset":1060828,
			"target":34963
		},
		{
			"buffer":0,
			"byteLength":16944,
			"byteOffset":1064644,
			"target":34962
		},
		{
			"buffer":0,
			"byteLength":16944,
			"byteOffset":1081588,
			"target":34962
		},
		{
			"buffer":0,
			"byteLength":11296,
			"byteOffset":1098532,
			"target":34962
		},
		{
			"buffer":0,
			"byteLength":11296,
			"byteOffset":1109828,
			"target":34962
		},
		{
			"buffer":0,
			"byteLength":9900,
			"byteOffset":1121124,
			"target":34963
		},
		{
			"buffer":0,
			"byteLength":1104,
			"byteOffset":1131024,
			"target":34962
		},
		{
			"buffer":0,
			"byteLength":1104,
			"byteOffset":1132128,
			"target":34962
		},
		{
			"buffer":0,
			"byteLength":736,
			"byteOffset":1133232,
			"target":34962
		},
		{
			"buffer":0,
			"byteLength":736,
			"byteOffset":1133968,
			"target":34962
		},
		{
			"buffer":0,
			"byteLength":720,
			"byteOffset":1134704,
			"target":34963
		}
	],
	"samplers":[
		{
			"magFilter":9729,
			"minFilter":9987
		}
	],
	"buffers":[
		{
			"byteLength":1135424,
			"uri":"Time%20Machine%2050.bin"
		}
	]
}
