{
	"asset":{
		"generator":"Khronos glTF Blender I/O v4.3.47",
		"version":"2.0"
	},
	"scene":0,
	"scenes":[
		{
			"name":"Scene",
			"nodes":[
				6
			]
		}
	],
	"nodes":[
		{
			"name":"th bolt.001_1",
			"rotation":[
				-0.04272915795445442,
				0.8333128094673157,
				-0.10422829538583755,
				0.5412027835845947
			],
			"translation":[
				3.742126941680908,
				0,
				0.008097589015960693
			]
		},
		{
			"name":"th bolt.002_2",
			"rotation":[
				-0.0966285914182663,
				0.39452672004699707,
				-0.1776079535484314,
				0.8963633179664612
			],
			"scale":[
				0.5600512027740479,
				0.7336272597312927,
				0.5129703283309937
			],
			"translation":[
				-3.989135980606079,
				0,
				0
			]
		},
		{
			"mesh":0,
			"name":"Object_4"
		},
		{
			"children":[
				2
			],
			"name":"th bolt_0",
			"rotation":[
				-0.012461688369512558,
				-0.0215148888528347,
				-0.20180776715278625,
				0.979109525680542
			],
			"scale":[
				1.3999828100204468,
				1.3999828100204468,
				1.3999828100204468
			]
		},
		{
			"children":[
				0,
				1,
				3
			],
			"name":"GLTF_SceneRootNode.001",
			"rotation":[
				0.70710688829422,
				0,
				0,
				0.7071066498756409
			]
		},
		{
			"children":[
				4
			],
			"name":"root.001"
		},
		{
			"children":[
				5
			],
			"name":"Sketchfab_model.002",
			"rotation":[
				-0.70710688829422,
				0,
				0,
				0.7071066498756409
			]
		}
	],
	"materials":[
		{
			"doubleSided":true,
			"emissiveFactor":[
				0.6126079559326172,
				0.6421957015991211,
				1
			],
			"name":"th_bolt"
		}
	],
	"meshes":[
		{
			"name":"Object_0.002",
			"primitives":[
				{
					"attributes":{
						"POSITION":0,
						"NORMAL":1,
						"TEXCOORD_0":2
					},
					"indices":3,
					"material":0
				}
			]
		}
	],
	"accessors":[
		{
			"bufferView":0,
			"componentType":5126,
			"count":244,
			"max":[
				0.1960701048374176,
				4.515334606170654,
				0.637349009513855
			],
			"min":[
				-2.2439138889312744,
				-0.008088622242212296,
				-1.21249520778656
			],
			"type":"VEC3"
		},
		{
			"bufferView":1,
			"componentType":5126,
			"count":244,
			"type":"VEC3"
		},
		{
			"bufferView":2,
			"componentType":5126,
			"count":244,
			"type":"VEC2"
		},
		{
			"bufferView":3,
			"componentType":5123,
			"count":1347,
			"type":"SCALAR"
		}
	],
	"bufferViews":[
		{
			"buffer":0,
			"byteLength":2928,
			"byteOffset":0,
			"target":34962
		},
		{
			"buffer":0,
			"byteLength":2928,
			"byteOffset":2928,
			"target":34962
		},
		{
			"buffer":0,
			"byteLength":1952,
			"byteOffset":5856,
			"target":34962
		},
		{
			"buffer":0,
			"byteLength":2694,
			"byteOffset":7808,
			"target":34963
		}
	],
	"buffers":[
		{
			"byteLength":10504,
			"uri":"lightning.bin"
		}
	]
}
