{
	"asset":{
		"generator":"Khronos glTF Blender I/O v4.3.47",
		"version":"2.0"
	},
	"scene":0,
	"scenes":[
		{
			"name":"Scene",
			"nodes":[
				4
			]
		}
	],
	"nodes":[
		{
			"mesh":0,
			"name":"Caseta_Brown Red Dark - Wood_0",
			"translation":[
				38.30693817138672,
				-25.33685302734375,
				-0.8097599148750305
			]
		},
		{
			"children":[
				0
			],
			"name":"Caseta",
			"rotation":[
				-0.70710688829422,
				0,
				0,
				0.7071066498756409
			],
			"scale":[
				55.57390594482422,
				46.50660705566406,
				683.0532836914062
			],
			"translation":[
				-2128.866455078125,
				553.1088256835938,
				-1178.331298828125
			]
		},
		{
			"children":[
				1
			],
			"name":"RootNode"
		},
		{
			"children":[
				2
			],
			"name":"affa0d6fc1df4fea83a8a935549356bd.fbx",
			"rotation":[
				0.70710688829422,
				0,
				0,
				0.7071066498756409
			]
		},
		{
			"children":[
				3
			],
			"name":"Sketchfab_model",
			"rotation":[
				-0.70710688829422,
				0,
				0,
				0.7071066498756409
			],
			"scale":[
				0.0006862672162242234,
				0.0006862672162242234,
				0.0006862672162242234
			]
		}
	],
	"materials":[
		{
			"doubleSided":true,
			"name":"Brown_Red_Dark_-_Wood",
			"pbrMetallicRoughness":{
				"baseColorFactor":[
					0.2079160064458847,
					0.04235279932618141,
					0.023041900247335434,
					1
				],
				"metallicFactor":0
			}
		},
		{
			"doubleSided":true,
			"name":"Grey_Light_-_Rock",
			"pbrMetallicRoughness":{
				"baseColorFactor":[
					0.21651899814605713,
					0.21651899814605713,
					0.21651899814605713,
					1
				],
				"metallicFactor":0,
				"roughnessFactor":0.9515848755836487
			}
		},
		{
			"doubleSided":true,
			"name":"Grey_Light_-_Rock_0",
			"pbrMetallicRoughness":{
				"baseColorFactor":[
					0.21796000003814697,
					0.2760399878025055,
					0.3168199956417084,
					1
				],
				"metallicFactor":0
			}
		},
		{
			"doubleSided":true,
			"name":"Grey_Dark_-_Rock",
			"pbrMetallicRoughness":{
				"baseColorFactor":[
					0.10709299892187119,
					0.10570500046014786,
					0.1183139979839325,
					1
				],
				"metallicFactor":0
			}
		},
		{
			"doubleSided":true,
			"name":"Brown_Red_-_Wood",
			"pbrMetallicRoughness":{
				"baseColorFactor":[
					0.35055598616600037,
					0.07925780117511749,
					0.040839001536369324,
					1
				],
				"metallicFactor":0
			}
		},
		{
			"doubleSided":true,
			"name":"Brown_Red_Light_-_Wood",
			"pbrMetallicRoughness":{
				"baseColorFactor":[
					0.7230430245399475,
					0.13906200230121613,
					0.06665509939193726,
					1
				],
				"metallicFactor":0
			}
		},
		{
			"doubleSided":true,
			"name":"Yellow_-_Rope",
			"pbrMetallicRoughness":{
				"baseColorFactor":[
					0.800000011920929,
					0.6181460022926331,
					0.07916960120201111,
					1
				],
				"metallicFactor":0
			}
		},
		{
			"doubleSided":true,
			"name":"material.001",
			"pbrMetallicRoughness":{
				"baseColorFactor":[
					0.4798400104045868,
					0,
					0,
					1
				],
				"metallicFactor":0,
				"roughnessFactor":0.9742146730422974
			}
		},
		{
			"doubleSided":true,
			"name":"Brown_Light_-_Wood",
			"pbrMetallicRoughness":{
				"baseColorFactor":[
					0.3497619926929474,
					0.14075499773025513,
					0.03022870048880577,
					1
				],
				"metallicFactor":0
			}
		},
		{
			"doubleSided":true,
			"name":"Brown_Dark_-_Wood",
			"pbrMetallicRoughness":{
				"baseColorFactor":[
					0.2857620120048523,
					0.1117589995265007,
					0.030729299411177635,
					1
				],
				"metallicFactor":0
			}
		},
		{
			"doubleSided":true,
			"name":"Material.002",
			"pbrMetallicRoughness":{
				"baseColorFactor":[
					0.2956939935684204,
					0.10491099953651428,
					0.01592870056629181,
					1
				],
				"metallicFactor":0,
				"roughnessFactor":0.9668323397636414
			}
		},
		{
			"doubleSided":true,
			"name":"Yellow_Light_-_Sand",
			"pbrMetallicRoughness":{
				"baseColorFactor":[
					0.5887010097503662,
					0.4604089856147766,
					0.23355600237846375,
					1
				],
				"metallicFactor":0
			}
		}
	],
	"meshes":[
		{
			"name":"Caseta_Brown Red Dark - Wood_0",
			"primitives":[
				{
					"attributes":{
						"POSITION":0,
						"NORMAL":1,
						"TEXCOORD_0":2
					},
					"indices":3,
					"material":0
				},
				{
					"attributes":{
						"POSITION":4,
						"NORMAL":5,
						"TEXCOORD_0":6
					},
					"indices":7,
					"material":1
				},
				{
					"attributes":{
						"POSITION":8,
						"NORMAL":9,
						"TEXCOORD_0":10
					},
					"indices":11,
					"material":2
				},
				{
					"attributes":{
						"POSITION":12,
						"NORMAL":13,
						"TEXCOORD_0":14
					},
					"indices":15,
					"material":3
				},
				{
					"attributes":{
						"POSITION":16,
						"NORMAL":17,
						"TEXCOORD_0":18
					},
					"indices":19,
					"material":4
				},
				{
					"attributes":{
						"POSITION":20,
						"NORMAL":21,
						"TEXCOORD_0":22
					},
					"indices":23,
					"material":5
				},
				{
					"attributes":{
						"POSITION":24,
						"NORMAL":25,
						"TEXCOORD_0":26
					},
					"indices":27,
					"material":6
				},
				{
					"attributes":{
						"POSITION":28,
						"NORMAL":29,
						"TEXCOORD_0":30
					},
					"indices":31,
					"material":7
				},
				{
					"attributes":{
						"POSITION":32,
						"NORMAL":33,
						"TEXCOORD_0":34
					},
					"indices":35,
					"material":8
				},
				{
					"attributes":{
						"POSITION":36,
						"NORMAL":37,
						"TEXCOORD_0":38
					},
					"indices":39,
					"material":9
				},
				{
					"attributes":{
						"POSITION":40,
						"NORMAL":41,
						"TEXCOORD_0":42
					},
					"indices":43,
					"material":10
				},
				{
					"attributes":{
						"POSITION":44,
						"NORMAL":45,
						"TEXCOORD_0":46
					},
					"indices":47,
					"material":11
				}
			]
		}
	],
	"accessors":[
		{
			"bufferView":0,
			"componentType":5126,
			"count":3139,
			"max":[
				45.36725616455078,
				41.933494567871094,
				2.7105298042297363
			],
			"min":[
				-51.28186798095703,
				-67.0609130859375,
				-0.32240962982177734
			],
			"type":"VEC3"
		},
		{
			"bufferView":1,
			"componentType":5126,
			"count":3139,
			"type":"VEC3"
		},
		{
			"bufferView":2,
			"componentType":5126,
			"count":3139,
			"type":"VEC2"
		},
		{
			"bufferView":3,
			"componentType":5123,
			"count":4920,
			"type":"SCALAR"
		},
		{
			"bufferView":4,
			"componentType":5126,
			"count":951,
			"max":[
				43.91551208496094,
				45.14010238647461,
				2.3072757720947266
			],
			"min":[
				-45.795326232910156,
				-54.18528747558594,
				-0.5064113140106201
			],
			"type":"VEC3"
		},
		{
			"bufferView":5,
			"componentType":5126,
			"count":951,
			"type":"VEC3"
		},
		{
			"bufferView":6,
			"componentType":5126,
			"count":951,
			"type":"VEC2"
		},
		{
			"bufferView":7,
			"componentType":5123,
			"count":1458,
			"type":"SCALAR"
		},
		{
			"bufferView":8,
			"componentType":5126,
			"count":1539,
			"max":[
				52.93547821044922,
				35.919551849365234,
				2.1581168174743652
			],
			"min":[
				-42.64288330078125,
				-48.858802795410156,
				-0.48519837856292725
			],
			"type":"VEC3"
		},
		{
			"bufferView":9,
			"componentType":5126,
			"count":1539,
			"type":"VEC3"
		},
		{
			"bufferView":10,
			"componentType":5126,
			"count":1539,
			"type":"VEC2"
		},
		{
			"bufferView":11,
			"componentType":5123,
			"count":2244,
			"type":"SCALAR"
		},
		{
			"bufferView":12,
			"componentType":5126,
			"count":1388,
			"max":[
				53.547080993652344,
				72.00076293945312,
				2.1909775733947754
			],
			"min":[
				-24.233318328857422,
				-56.008636474609375,
				-0.4236717224121094
			],
			"type":"VEC3"
		},
		{
			"bufferView":13,
			"componentType":5126,
			"count":1388,
			"type":"VEC3"
		},
		{
			"bufferView":14,
			"componentType":5126,
			"count":1388,
			"type":"VEC2"
		},
		{
			"bufferView":15,
			"componentType":5123,
			"count":1872,
			"type":"SCALAR"
		},
		{
			"bufferView":16,
			"componentType":5126,
			"count":40,
			"max":[
				-22.026973724365234,
				-13.427909851074219,
				1.1418777704238892
			],
			"min":[
				-35.67034149169922,
				-15.951946258544922,
				0.9700254201889038
			],
			"type":"VEC3"
		},
		{
			"bufferView":17,
			"componentType":5126,
			"count":40,
			"type":"VEC3"
		},
		{
			"bufferView":18,
			"componentType":5126,
			"count":40,
			"type":"VEC2"
		},
		{
			"bufferView":19,
			"componentType":5123,
			"count":48,
			"type":"SCALAR"
		},
		{
			"bufferView":20,
			"componentType":5126,
			"count":8081,
			"max":[
				42.670677185058594,
				44.602264404296875,
				1.6933073997497559
			],
			"min":[
				-50.070533752441406,
				-61.85881805419922,
				-0.006287574768066406
			],
			"type":"VEC3"
		},
		{
			"bufferView":21,
			"componentType":5126,
			"count":8081,
			"type":"VEC3"
		},
		{
			"bufferView":22,
			"componentType":5126,
			"count":8081,
			"type":"VEC2"
		},
		{
			"bufferView":23,
			"componentType":5123,
			"count":9648,
			"type":"SCALAR"
		},
		{
			"bufferView":24,
			"componentType":5126,
			"count":862,
			"max":[
				-25.93413543701172,
				42.336509704589844,
				1.678686261177063
			],
			"min":[
				-50.58607864379883,
				8.425382614135742,
				1.2321701049804688
			],
			"type":"VEC3"
		},
		{
			"bufferView":25,
			"componentType":5126,
			"count":862,
			"type":"VEC3"
		},
		{
			"bufferView":26,
			"componentType":5126,
			"count":862,
			"type":"VEC2"
		},
		{
			"bufferView":27,
			"componentType":5123,
			"count":1152,
			"type":"SCALAR"
		},
		{
			"bufferView":28,
			"componentType":5126,
			"count":128,
			"max":[
				42.91796112060547,
				40.410423278808594,
				2.7105298042297363
			],
			"min":[
				-2.4747543334960938,
				-65.33468627929688,
				1.732583999633789
			],
			"type":"VEC3"
		},
		{
			"bufferView":29,
			"componentType":5126,
			"count":128,
			"type":"VEC3"
		},
		{
			"bufferView":30,
			"componentType":5126,
			"count":128,
			"type":"VEC2"
		},
		{
			"bufferView":31,
			"componentType":5123,
			"count":192,
			"type":"SCALAR"
		},
		{
			"bufferView":32,
			"componentType":5126,
			"count":560,
			"max":[
				41.99388885498047,
				-27.275638580322266,
				0.7583571672439575
			],
			"min":[
				8.338397979736328,
				-59.861854553222656,
				0.4380296468734741
			],
			"type":"VEC3"
		},
		{
			"bufferView":33,
			"componentType":5126,
			"count":560,
			"type":"VEC3"
		},
		{
			"bufferView":34,
			"componentType":5126,
			"count":560,
			"type":"VEC2"
		},
		{
			"bufferView":35,
			"componentType":5123,
			"count":720,
			"type":"SCALAR"
		},
		{
			"bufferView":36,
			"componentType":5126,
			"count":516,
			"max":[
				42.31555938720703,
				-25.984710693359375,
				0.7895708084106445
			],
			"min":[
				3.3625831604003906,
				-61.21049499511719,
				0.17677628993988037
			],
			"type":"VEC3"
		},
		{
			"bufferView":37,
			"componentType":5126,
			"count":516,
			"type":"VEC3"
		},
		{
			"bufferView":38,
			"componentType":5126,
			"count":516,
			"type":"VEC2"
		},
		{
			"bufferView":39,
			"componentType":5123,
			"count":744,
			"type":"SCALAR"
		},
		{
			"bufferView":40,
			"componentType":5126,
			"count":1903,
			"max":[
				31.570091247558594,
				-33.20412826538086,
				0.9881224632263184
			],
			"min":[
				12.04595947265625,
				-49.48194122314453,
				0.5011862516403198
			],
			"type":"VEC3"
		},
		{
			"bufferView":41,
			"componentType":5126,
			"count":1903,
			"type":"VEC3"
		},
		{
			"bufferView":42,
			"componentType":5126,
			"count":1903,
			"type":"VEC2"
		},
		{
			"bufferView":43,
			"componentType":5123,
			"count":2844,
			"type":"SCALAR"
		},
		{
			"bufferView":44,
			"componentType":5126,
			"count":144,
			"max":[
				56.168434143066406,
				77.33746337890625,
				0.0063141584396362305
			],
			"min":[
				-56.16843795776367,
				-77.33746337890625,
				-0.14008724689483643
			],
			"type":"VEC3"
		},
		{
			"bufferView":45,
			"componentType":5126,
			"count":144,
			"type":"VEC3"
		},
		{
			"bufferView":46,
			"componentType":5126,
			"count":144,
			"type":"VEC2"
		},
		{
			"bufferView":47,
			"componentType":5123,
			"count":204,
			"type":"SCALAR"
		}
	],
	"bufferViews":[
		{
			"buffer":0,
			"byteLength":37668,
			"byteOffset":0,
			"target":34962
		},
		{
			"buffer":0,
			"byteLength":37668,
			"byteOffset":37668,
			"target":34962
		},
		{
			"buffer":0,
			"byteLength":25112,
			"byteOffset":75336,
			"target":34962
		},
		{
			"buffer":0,
			"byteLength":9840,
			"byteOffset":100448,
			"target":34963
		},
		{
			"buffer":0,
			"byteLength":11412,
			"byteOffset":110288,
			"target":34962
		},
		{
			"buffer":0,
			"byteLength":11412,
			"byteOffset":121700,
			"target":34962
		},
		{
			"buffer":0,
			"byteLength":7608,
			"byteOffset":133112,
			"target":34962
		},
		{
			"buffer":0,
			"byteLength":2916,
			"byteOffset":140720,
			"target":34963
		},
		{
			"buffer":0,
			"byteLength":18468,
			"byteOffset":143636,
			"target":34962
		},
		{
			"buffer":0,
			"byteLength":18468,
			"byteOffset":162104,
			"target":34962
		},
		{
			"buffer":0,
			"byteLength":12312,
			"byteOffset":180572,
			"target":34962
		},
		{
			"buffer":0,
			"byteLength":4488,
			"byteOffset":192884,
			"target":34963
		},
		{
			"buffer":0,
			"byteLength":16656,
			"byteOffset":197372,
			"target":34962
		},
		{
			"buffer":0,
			"byteLength":16656,
			"byteOffset":214028,
			"target":34962
		},
		{
			"buffer":0,
			"byteLength":11104,
			"byteOffset":230684,
			"target":34962
		},
		{
			"buffer":0,
			"byteLength":3744,
			"byteOffset":241788,
			"target":34963
		},
		{
			"buffer":0,
			"byteLength":480,
			"byteOffset":245532,
			"target":34962
		},
		{
			"buffer":0,
			"byteLength":480,
			"byteOffset":246012,
			"target":34962
		},
		{
			"buffer":0,
			"byteLength":320,
			"byteOffset":246492,
			"target":34962
		},
		{
			"buffer":0,
			"byteLength":96,
			"byteOffset":246812,
			"target":34963
		},
		{
			"buffer":0,
			"byteLength":96972,
			"byteOffset":246908,
			"target":34962
		},
		{
			"buffer":0,
			"byteLength":96972,
			"byteOffset":343880,
			"target":34962
		},
		{
			"buffer":0,
			"byteLength":64648,
			"byteOffset":440852,
			"target":34962
		},
		{
			"buffer":0,
			"byteLength":19296,
			"byteOffset":505500,
			"target":34963
		},
		{
			"buffer":0,
			"byteLength":10344,
			"byteOffset":524796,
			"target":34962
		},
		{
			"buffer":0,
			"byteLength":10344,
			"byteOffset":535140,
			"target":34962
		},
		{
			"buffer":0,
			"byteLength":6896,
			"byteOffset":545484,
			"target":34962
		},
		{
			"buffer":0,
			"byteLength":2304,
			"byteOffset":552380,
			"target":34963
		},
		{
			"buffer":0,
			"byteLength":1536,
			"byteOffset":554684,
			"target":34962
		},
		{
			"buffer":0,
			"byteLength":1536,
			"byteOffset":556220,
			"target":34962
		},
		{
			"buffer":0,
			"byteLength":1024,
			"byteOffset":557756,
			"target":34962
		},
		{
			"buffer":0,
			"byteLength":384,
			"byteOffset":558780,
			"target":34963
		},
		{
			"buffer":0,
			"byteLength":6720,
			"byteOffset":559164,
			"target":34962
		},
		{
			"buffer":0,
			"byteLength":6720,
			"byteOffset":565884,
			"target":34962
		},
		{
			"buffer":0,
			"byteLength":4480,
			"byteOffset":572604,
			"target":34962
		},
		{
			"buffer":0,
			"byteLength":1440,
			"byteOffset":577084,
			"target":34963
		},
		{
			"buffer":0,
			"byteLength":6192,
			"byteOffset":578524,
			"target":34962
		},
		{
			"buffer":0,
			"byteLength":6192,
			"byteOffset":584716,
			"target":34962
		},
		{
			"buffer":0,
			"byteLength":4128,
			"byteOffset":590908,
			"target":34962
		},
		{
			"buffer":0,
			"byteLength":1488,
			"byteOffset":595036,
			"target":34963
		},
		{
			"buffer":0,
			"byteLength":22836,
			"byteOffset":596524,
			"target":34962
		},
		{
			"buffer":0,
			"byteLength":22836,
			"byteOffset":619360,
			"target":34962
		},
		{
			"buffer":0,
			"byteLength":15224,
			"byteOffset":642196,
			"target":34962
		},
		{
			"buffer":0,
			"byteLength":5688,
			"byteOffset":657420,
			"target":34963
		},
		{
			"buffer":0,
			"byteLength":1728,
			"byteOffset":663108,
			"target":34962
		},
		{
			"buffer":0,
			"byteLength":1728,
			"byteOffset":664836,
			"target":34962
		},
		{
			"buffer":0,
			"byteLength":1152,
			"byteOffset":666564,
			"target":34962
		},
		{
			"buffer":0,
			"byteLength":408,
			"byteOffset":667716,
			"target":34963
		}
	],
	"buffers":[
		{
			"byteLength":668124,
			"uri":"quarrygltf.bin"
		}
	]
}
