{
	"asset":{
		"generator":"Khronos glTF Blender I/O v4.3.47",
		"version":"2.0"
	},
	"extensionsUsed":[
		"KHR_materials_clearcoat"
	],
	"scene":0,
	"scenes":[
		{
			"name":"Scene",
			"nodes":[
				0
			]
		}
	],
	"nodes":[
		{
			"mesh":0,
			"name":"Plane.002_0",
			"rotation":[
				-0.70710688829422,
				0,
				0,
				0.7071066498756409
			],
			"scale":[
				12.929649353027344,
				12.929648399353027,
				12.929648399353027
			]
		}
	],
	"materials":[
		{
			"doubleSided":true,
			"name":"material_12",
			"pbrMetallicRoughness":{
				"baseColorFactor":[
					0.715129554271698,
					0.715129554271698,
					0.715129554271698,
					1
				],
				"baseColorTexture":{
					"index":0
				},
				"metallicFactor":0,
				"roughnessFactor":0
			}
		},
		{
			"doubleSided":true,
			"extensions":{
				"KHR_materials_clearcoat":{
					"clearcoatFactor":1,
					"clearcoatRoughnessFactor":0.03999999910593033
				}
			},
			"name":"material_14",
			"pbrMetallicRoughness":{
				"baseColorTexture":{
					"index":1
				},
				"metallicFactor":0,
				"roughnessFactor":0.6053735017776489
			}
		},
		{
			"doubleSided":true,
			"name":"material_13",
			"pbrMetallicRoughness":{
				"baseColorTexture":{
					"index":2
				},
				"metallicFactor":0,
				"roughnessFactor":0.6000000238418579
			}
		},
		{
			"doubleSided":true,
			"name":"material_11",
			"pbrMetallicRoughness":{
				"baseColorTexture":{
					"index":3
				},
				"metallicFactor":0,
				"roughnessFactor":0.6000000238418579
			}
		},
		{
			"doubleSided":true,
			"name":"material_10",
			"pbrMetallicRoughness":{
				"baseColorTexture":{
					"index":4
				},
				"metallicFactor":0,
				"roughnessFactor":0.6000000238418579
			}
		},
		{
			"doubleSided":true,
			"name":"material_9",
			"pbrMetallicRoughness":{
				"baseColorTexture":{
					"index":5
				},
				"metallicFactor":0,
				"roughnessFactor":0.6000000238418579
			}
		},
		{
			"doubleSided":true,
			"name":"material_8",
			"pbrMetallicRoughness":{
				"baseColorTexture":{
					"index":6
				},
				"metallicFactor":0,
				"roughnessFactor":0.6000000238418579
			}
		},
		{
			"doubleSided":true,
			"name":"material_7",
			"pbrMetallicRoughness":{
				"baseColorTexture":{
					"index":7
				},
				"metallicFactor":0,
				"roughnessFactor":0.6000000238418579
			}
		},
		{
			"doubleSided":true,
			"name":"material_6",
			"pbrMetallicRoughness":{
				"baseColorTexture":{
					"index":8
				},
				"metallicFactor":0,
				"roughnessFactor":0.6000000238418579
			}
		},
		{
			"doubleSided":true,
			"name":"material_5",
			"pbrMetallicRoughness":{
				"baseColorTexture":{
					"index":9
				},
				"metallicFactor":0,
				"roughnessFactor":0.6000000238418579
			}
		},
		{
			"doubleSided":true,
			"name":"material_4",
			"pbrMetallicRoughness":{
				"baseColorTexture":{
					"index":10
				},
				"metallicFactor":0,
				"roughnessFactor":0.6000000238418579
			}
		},
		{
			"doubleSided":true,
			"name":"material_3",
			"pbrMetallicRoughness":{
				"baseColorTexture":{
					"index":11
				},
				"metallicFactor":0,
				"roughnessFactor":0.6000000238418579
			}
		},
		{
			"doubleSided":true,
			"name":"material_2",
			"pbrMetallicRoughness":{
				"baseColorTexture":{
					"index":12
				},
				"metallicFactor":0,
				"roughnessFactor":0.6000000238418579
			}
		},
		{
			"doubleSided":true,
			"name":"material_1",
			"pbrMetallicRoughness":{
				"baseColorTexture":{
					"index":13
				},
				"metallicFactor":0,
				"roughnessFactor":0.6000000238418579
			}
		},
		{
			"doubleSided":true,
			"name":"material",
			"pbrMetallicRoughness":{
				"baseColorTexture":{
					"index":14
				},
				"metallicFactor":0,
				"roughnessFactor":0.6000000238418579
			}
		}
	],
	"meshes":[
		{
			"name":"Plane.002_0",
			"primitives":[
				{
					"attributes":{
						"POSITION":0,
						"NORMAL":1,
						"TEXCOORD_0":2,
						"COLOR_0":3
					},
					"indices":4,
					"material":0
				},
				{
					"attributes":{
						"POSITION":5,
						"NORMAL":6,
						"TEXCOORD_0":7,
						"COLOR_0":8
					},
					"indices":9,
					"material":1
				},
				{
					"attributes":{
						"POSITION":10,
						"NORMAL":11,
						"TEXCOORD_0":12,
						"COLOR_0":13
					},
					"indices":14,
					"material":2
				},
				{
					"attributes":{
						"POSITION":15,
						"NORMAL":16,
						"TEXCOORD_0":17,
						"COLOR_0":18
					},
					"indices":19,
					"material":3
				},
				{
					"attributes":{
						"POSITION":20,
						"NORMAL":21,
						"TEXCOORD_0":22,
						"COLOR_0":23
					},
					"indices":24,
					"material":4
				},
				{
					"attributes":{
						"POSITION":25,
						"NORMAL":26,
						"TEXCOORD_0":27,
						"COLOR_0":28
					},
					"indices":29,
					"material":5
				},
				{
					"attributes":{
						"POSITION":30,
						"NORMAL":31,
						"TEXCOORD_0":32,
						"COLOR_0":33
					},
					"indices":34,
					"material":6
				},
				{
					"attributes":{
						"POSITION":35,
						"NORMAL":36,
						"TEXCOORD_0":37,
						"COLOR_0":38
					},
					"indices":39,
					"material":7
				},
				{
					"attributes":{
						"POSITION":40,
						"NORMAL":41,
						"TEXCOORD_0":42,
						"COLOR_0":43
					},
					"indices":44,
					"material":8
				},
				{
					"attributes":{
						"POSITION":45,
						"NORMAL":46,
						"TEXCOORD_0":47,
						"COLOR_0":48
					},
					"indices":49,
					"material":9
				},
				{
					"attributes":{
						"POSITION":50,
						"NORMAL":51,
						"TEXCOORD_0":52,
						"COLOR_0":53
					},
					"indices":54,
					"material":10
				},
				{
					"attributes":{
						"POSITION":55,
						"NORMAL":56,
						"TEXCOORD_0":57,
						"COLOR_0":58
					},
					"indices":59,
					"material":11
				},
				{
					"attributes":{
						"POSITION":60,
						"NORMAL":61,
						"TEXCOORD_0":62,
						"COLOR_0":63
					},
					"indices":64,
					"material":12
				},
				{
					"attributes":{
						"POSITION":65,
						"NORMAL":66,
						"TEXCOORD_0":67,
						"COLOR_0":68
					},
					"indices":69,
					"material":13
				},
				{
					"attributes":{
						"POSITION":70,
						"NORMAL":71,
						"TEXCOORD_0":72,
						"COLOR_0":73
					},
					"indices":74,
					"material":14
				}
			]
		}
	],
	"textures":[
		{
			"sampler":0,
			"source":0
		},
		{
			"sampler":0,
			"source":0
		},
		{
			"sampler":0,
			"source":1
		},
		{
			"sampler":0,
			"source":0
		},
		{
			"sampler":0,
			"source":0
		},
		{
			"sampler":0,
			"source":0
		},
		{
			"sampler":0,
			"source":0
		},
		{
			"sampler":0,
			"source":0
		},
		{
			"sampler":0,
			"source":0
		},
		{
			"sampler":0,
			"source":0
		},
		{
			"sampler":0,
			"source":0
		},
		{
			"sampler":0,
			"source":0
		},
		{
			"sampler":0,
			"source":0
		},
		{
			"sampler":0,
			"source":0
		},
		{
			"sampler":0,
			"source":0
		}
	],
	"images":[
		{
			"mimeType":"image/png",
			"name":"material_baseColor",
			"uri":"material_baseColor.png"
		},
		{
			"mimeType":"image/png",
			"name":"material_13_baseColor",
			"uri":"material_13_baseColor.png"
		}
	],
	"accessors":[
		{
			"bufferView":0,
			"componentType":5126,
			"count":1185,
			"max":[
				0.6705965399742126,
				0.6908929347991943,
				0.006086200475692749
			],
			"min":[
				-0.6572534441947937,
				-0.671517014503479,
				-0.07611378282308578
			],
			"type":"VEC3"
		},
		{
			"bufferView":1,
			"componentType":5126,
			"count":1185,
			"type":"VEC3"
		},
		{
			"bufferView":2,
			"componentType":5126,
			"count":1185,
			"type":"VEC2"
		},
		{
			"bufferView":3,
			"componentType":5126,
			"count":1185,
			"type":"VEC3"
		},
		{
			"bufferView":4,
			"componentType":5123,
			"count":1836,
			"type":"SCALAR"
		},
		{
			"bufferView":5,
			"componentType":5126,
			"count":5386,
			"max":[
				0.22471608221530914,
				0.22142112255096436,
				0.15141808986663818
			],
			"min":[
				-0.008115056902170181,
				-0.005913348402827978,
				-0.012118816375732422
			],
			"type":"VEC3"
		},
		{
			"bufferView":6,
			"componentType":5126,
			"count":5386,
			"type":"VEC3"
		},
		{
			"bufferView":7,
			"componentType":5126,
			"count":5386,
			"type":"VEC2"
		},
		{
			"bufferView":8,
			"componentType":5126,
			"count":5386,
			"type":"VEC3"
		},
		{
			"bufferView":9,
			"componentType":5123,
			"count":13704,
			"type":"SCALAR"
		},
		{
			"bufferView":10,
			"componentType":5126,
			"count":3779,
			"max":[
				-0.04184107854962349,
				0.34293311834335327,
				0.1045914739370346
			],
			"min":[
				-0.2040112465620041,
				0.30270081758499146,
				-0.00767119973897934
			],
			"type":"VEC3"
		},
		{
			"bufferView":11,
			"componentType":5126,
			"count":3779,
			"type":"VEC3"
		},
		{
			"bufferView":12,
			"componentType":5126,
			"count":3779,
			"type":"VEC2"
		},
		{
			"bufferView":13,
			"componentType":5126,
			"count":3779,
			"type":"VEC3"
		},
		{
			"bufferView":14,
			"componentType":5123,
			"count":3780,
			"type":"SCALAR"
		},
		{
			"bufferView":15,
			"componentType":5126,
			"count":2644,
			"max":[
				0.1418737918138504,
				0.6609052419662476,
				0.5054424405097961
			],
			"min":[
				-0.07268474996089935,
				0.4304272532463074,
				-0.025588475167751312
			],
			"type":"VEC3"
		},
		{
			"bufferView":16,
			"componentType":5126,
			"count":2644,
			"type":"VEC3"
		},
		{
			"bufferView":17,
			"componentType":5126,
			"count":2644,
			"type":"VEC2"
		},
		{
			"bufferView":18,
			"componentType":5126,
			"count":2644,
			"type":"VEC3"
		},
		{
			"bufferView":19,
			"componentType":5123,
			"count":3624,
			"type":"SCALAR"
		},
		{
			"bufferView":20,
			"componentType":5126,
			"count":10655,
			"max":[
				0.5269598960876465,
				-0.14663374423980713,
				0.07182823866605759
			],
			"min":[
				0.31576839089393616,
				-0.6005873680114746,
				-0.006422676146030426
			],
			"type":"VEC3"
		},
		{
			"bufferView":21,
			"componentType":5126,
			"count":10655,
			"type":"VEC3"
		},
		{
			"bufferView":22,
			"componentType":5126,
			"count":10655,
			"type":"VEC2"
		},
		{
			"bufferView":23,
			"componentType":5126,
			"count":10655,
			"type":"VEC3"
		},
		{
			"bufferView":24,
			"componentType":5123,
			"count":11187,
			"type":"SCALAR"
		},
		{
			"bufferView":25,
			"componentType":5126,
			"count":18167,
			"max":[
				0.2592024505138397,
				-0.14663374423980713,
				0.16564825177192688
			],
			"min":[
				0.054360922425985336,
				-0.6005873680114746,
				-0.01284172385931015
			],
			"type":"VEC3"
		},
		{
			"bufferView":26,
			"componentType":5126,
			"count":18167,
			"type":"VEC3"
		},
		{
			"bufferView":27,
			"componentType":5126,
			"count":18167,
			"type":"VEC2"
		},
		{
			"bufferView":28,
			"componentType":5126,
			"count":18167,
			"type":"VEC3"
		},
		{
			"bufferView":29,
			"componentType":5123,
			"count":25779,
			"type":"SCALAR"
		},
		{
			"bufferView":30,
			"componentType":5126,
			"count":9729,
			"max":[
				0.6599810719490051,
				0.6813749074935913,
				0.29212406277656555
			],
			"min":[
				-0.6331667304039001,
				-0.642784833908081,
				-0.005149945616722107
			],
			"type":"VEC3"
		},
		{
			"bufferView":31,
			"componentType":5126,
			"count":9729,
			"type":"VEC3"
		},
		{
			"bufferView":32,
			"componentType":5126,
			"count":9729,
			"type":"VEC2"
		},
		{
			"bufferView":33,
			"componentType":5126,
			"count":9729,
			"type":"VEC3"
		},
		{
			"bufferView":34,
			"componentType":5123,
			"count":13752,
			"type":"SCALAR"
		},
		{
			"bufferView":35,
			"componentType":5126,
			"count":18173,
			"max":[
				-0.038384366780519485,
				0.46285736560821533,
				0.6227107048034668
			],
			"min":[
				-0.5785083174705505,
				-0.557621955871582,
				-0.007586732506752014
			],
			"type":"VEC3"
		},
		{
			"bufferView":36,
			"componentType":5126,
			"count":18173,
			"type":"VEC3"
		},
		{
			"bufferView":37,
			"componentType":5126,
			"count":18173,
			"type":"VEC2"
		},
		{
			"bufferView":38,
			"componentType":5126,
			"count":18173,
			"type":"VEC3"
		},
		{
			"bufferView":39,
			"componentType":5123,
			"count":32058,
			"type":"SCALAR"
		},
		{
			"bufferView":40,
			"componentType":5126,
			"count":4918,
			"max":[
				0.5067732334136963,
				0.6657761335372925,
				0.34302154183387756
			],
			"min":[
				-0.6385819315910339,
				0.25356292724609375,
				-0.03295367211103439
			],
			"type":"VEC3"
		},
		{
			"bufferView":41,
			"componentType":5126,
			"count":4918,
			"type":"VEC3"
		},
		{
			"bufferView":42,
			"componentType":5126,
			"count":4918,
			"type":"VEC2"
		},
		{
			"bufferView":43,
			"componentType":5126,
			"count":4918,
			"type":"VEC3"
		},
		{
			"bufferView":44,
			"componentType":5123,
			"count":7350,
			"type":"SCALAR"
		},
		{
			"bufferView":45,
			"componentType":5126,
			"count":7856,
			"max":[
				0.3197753131389618,
				-0.27586841583251953,
				0.14817295968532562
			],
			"min":[
				0.27334532141685486,
				-0.41171568632125854,
				-0.007974609732627869
			],
			"type":"VEC3"
		},
		{
			"bufferView":46,
			"componentType":5126,
			"count":7856,
			"type":"VEC3"
		},
		{
			"bufferView":47,
			"componentType":5126,
			"count":7856,
			"type":"VEC2"
		},
		{
			"bufferView":48,
			"componentType":5126,
			"count":7856,
			"type":"VEC3"
		},
		{
			"bufferView":49,
			"componentType":5123,
			"count":8064,
			"type":"SCALAR"
		},
		{
			"bufferView":50,
			"componentType":5126,
			"count":672,
			"max":[
				0.39384594559669495,
				0.41990554332733154,
				0.05877942964434624
			],
			"min":[
				0.2868390381336212,
				0.2750232219696045,
				-0.02646593004465103
			],
			"type":"VEC3"
		},
		{
			"bufferView":51,
			"componentType":5126,
			"count":672,
			"type":"VEC3"
		},
		{
			"bufferView":52,
			"componentType":5126,
			"count":672,
			"type":"VEC2"
		},
		{
			"bufferView":53,
			"componentType":5126,
			"count":672,
			"type":"VEC3"
		},
		{
			"bufferView":54,
			"componentType":5123,
			"count":672,
			"type":"SCALAR"
		},
		{
			"bufferView":55,
			"componentType":5126,
			"count":904,
			"max":[
				-0.02011832967400551,
				-0.2390395700931549,
				0.07745223492383957
			],
			"min":[
				-0.07363063097000122,
				-0.3659588694572449,
				-0.008495748043060303
			],
			"type":"VEC3"
		},
		{
			"bufferView":56,
			"componentType":5126,
			"count":904,
			"type":"VEC3"
		},
		{
			"bufferView":57,
			"componentType":5126,
			"count":904,
			"type":"VEC2"
		},
		{
			"bufferView":58,
			"componentType":5126,
			"count":904,
			"type":"VEC3"
		},
		{
			"bufferView":59,
			"componentType":5123,
			"count":1260,
			"type":"SCALAR"
		},
		{
			"bufferView":60,
			"componentType":5126,
			"count":3056,
			"max":[
				0.07357388734817505,
				0.3935908079147339,
				0.019429706037044525
			],
			"min":[
				0.0007420144975185394,
				0.3153252601623535,
				-0.023498810827732086
			],
			"type":"VEC3"
		},
		{
			"bufferView":61,
			"componentType":5126,
			"count":3056,
			"type":"VEC3"
		},
		{
			"bufferView":62,
			"componentType":5126,
			"count":3056,
			"type":"VEC2"
		},
		{
			"bufferView":63,
			"componentType":5126,
			"count":3056,
			"type":"VEC3"
		},
		{
			"bufferView":64,
			"componentType":5123,
			"count":3060,
			"type":"SCALAR"
		},
		{
			"bufferView":65,
			"componentType":5126,
			"count":8737,
			"max":[
				0.5622602701187134,
				0.39614802598953247,
				0.049841947853565216
			],
			"min":[
				-0.2073412984609604,
				-0.4313619136810303,
				-0.00970015674829483
			],
			"type":"VEC3"
		},
		{
			"bufferView":66,
			"componentType":5126,
			"count":8737,
			"type":"VEC3"
		},
		{
			"bufferView":67,
			"componentType":5126,
			"count":8737,
			"type":"VEC2"
		},
		{
			"bufferView":68,
			"componentType":5126,
			"count":8737,
			"type":"VEC3"
		},
		{
			"bufferView":69,
			"componentType":5123,
			"count":9036,
			"type":"SCALAR"
		},
		{
			"bufferView":70,
			"componentType":5126,
			"count":9157,
			"max":[
				0.5978749990463257,
				0.21901839971542358,
				0.08859947323799133
			],
			"min":[
				-0.06413494050502777,
				-0.5160254240036011,
				-0.01848352700471878
			],
			"type":"VEC3"
		},
		{
			"bufferView":71,
			"componentType":5126,
			"count":9157,
			"type":"VEC3"
		},
		{
			"bufferView":72,
			"componentType":5126,
			"count":9157,
			"type":"VEC2"
		},
		{
			"bufferView":73,
			"componentType":5126,
			"count":9157,
			"type":"VEC3"
		},
		{
			"bufferView":74,
			"componentType":5123,
			"count":11178,
			"type":"SCALAR"
		}
	],
	"bufferViews":[
		{
			"buffer":0,
			"byteLength":14220,
			"byteOffset":0,
			"target":34962
		},
		{
			"buffer":0,
			"byteLength":14220,
			"byteOffset":14220,
			"target":34962
		},
		{
			"buffer":0,
			"byteLength":9480,
			"byteOffset":28440,
			"target":34962
		},
		{
			"buffer":0,
			"byteLength":14220,
			"byteOffset":37920,
			"target":34962
		},
		{
			"buffer":0,
			"byteLength":3672,
			"byteOffset":52140,
			"target":34963
		},
		{
			"buffer":0,
			"byteLength":64632,
			"byteOffset":55812,
			"target":34962
		},
		{
			"buffer":0,
			"byteLength":64632,
			"byteOffset":120444,
			"target":34962
		},
		{
			"buffer":0,
			"byteLength":43088,
			"byteOffset":185076,
			"target":34962
		},
		{
			"buffer":0,
			"byteLength":64632,
			"byteOffset":228164,
			"target":34962
		},
		{
			"buffer":0,
			"byteLength":27408,
			"byteOffset":292796,
			"target":34963
		},
		{
			"buffer":0,
			"byteLength":45348,
			"byteOffset":320204,
			"target":34962
		},
		{
			"buffer":0,
			"byteLength":45348,
			"byteOffset":365552,
			"target":34962
		},
		{
			"buffer":0,
			"byteLength":30232,
			"byteOffset":410900,
			"target":34962
		},
		{
			"buffer":0,
			"byteLength":45348,
			"byteOffset":441132,
			"target":34962
		},
		{
			"buffer":0,
			"byteLength":7560,
			"byteOffset":486480,
			"target":34963
		},
		{
			"buffer":0,
			"byteLength":31728,
			"byteOffset":494040,
			"target":34962
		},
		{
			"buffer":0,
			"byteLength":31728,
			"byteOffset":525768,
			"target":34962
		},
		{
			"buffer":0,
			"byteLength":21152,
			"byteOffset":557496,
			"target":34962
		},
		{
			"buffer":0,
			"byteLength":31728,
			"byteOffset":578648,
			"target":34962
		},
		{
			"buffer":0,
			"byteLength":7248,
			"byteOffset":610376,
			"target":34963
		},
		{
			"buffer":0,
			"byteLength":127860,
			"byteOffset":617624,
			"target":34962
		},
		{
			"buffer":0,
			"byteLength":127860,
			"byteOffset":745484,
			"target":34962
		},
		{
			"buffer":0,
			"byteLength":85240,
			"byteOffset":873344,
			"target":34962
		},
		{
			"buffer":0,
			"byteLength":127860,
			"byteOffset":958584,
			"target":34962
		},
		{
			"buffer":0,
			"byteLength":22374,
			"byteOffset":1086444,
			"target":34963
		},
		{
			"buffer":0,
			"byteLength":218004,
			"byteOffset":1108820,
			"target":34962
		},
		{
			"buffer":0,
			"byteLength":218004,
			"byteOffset":1326824,
			"target":34962
		},
		{
			"buffer":0,
			"byteLength":145336,
			"byteOffset":1544828,
			"target":34962
		},
		{
			"buffer":0,
			"byteLength":218004,
			"byteOffset":1690164,
			"target":34962
		},
		{
			"buffer":0,
			"byteLength":51558,
			"byteOffset":1908168,
			"target":34963
		},
		{
			"buffer":0,
			"byteLength":116748,
			"byteOffset":1959728,
			"target":34962
		},
		{
			"buffer":0,
			"byteLength":116748,
			"byteOffset":2076476,
			"target":34962
		},
		{
			"buffer":0,
			"byteLength":77832,
			"byteOffset":2193224,
			"target":34962
		},
		{
			"buffer":0,
			"byteLength":116748,
			"byteOffset":2271056,
			"target":34962
		},
		{
			"buffer":0,
			"byteLength":27504,
			"byteOffset":2387804,
			"target":34963
		},
		{
			"buffer":0,
			"byteLength":218076,
			"byteOffset":2415308,
			"target":34962
		},
		{
			"buffer":0,
			"byteLength":218076,
			"byteOffset":2633384,
			"target":34962
		},
		{
			"buffer":0,
			"byteLength":145384,
			"byteOffset":2851460,
			"target":34962
		},
		{
			"buffer":0,
			"byteLength":218076,
			"byteOffset":2996844,
			"target":34962
		},
		{
			"buffer":0,
			"byteLength":64116,
			"byteOffset":3214920,
			"target":34963
		},
		{
			"buffer":0,
			"byteLength":59016,
			"byteOffset":3279036,
			"target":34962
		},
		{
			"buffer":0,
			"byteLength":59016,
			"byteOffset":3338052,
			"target":34962
		},
		{
			"buffer":0,
			"byteLength":39344,
			"byteOffset":3397068,
			"target":34962
		},
		{
			"buffer":0,
			"byteLength":59016,
			"byteOffset":3436412,
			"target":34962
		},
		{
			"buffer":0,
			"byteLength":14700,
			"byteOffset":3495428,
			"target":34963
		},
		{
			"buffer":0,
			"byteLength":94272,
			"byteOffset":3510128,
			"target":34962
		},
		{
			"buffer":0,
			"byteLength":94272,
			"byteOffset":3604400,
			"target":34962
		},
		{
			"buffer":0,
			"byteLength":62848,
			"byteOffset":3698672,
			"target":34962
		},
		{
			"buffer":0,
			"byteLength":94272,
			"byteOffset":3761520,
			"target":34962
		},
		{
			"buffer":0,
			"byteLength":16128,
			"byteOffset":3855792,
			"target":34963
		},
		{
			"buffer":0,
			"byteLength":8064,
			"byteOffset":3871920,
			"target":34962
		},
		{
			"buffer":0,
			"byteLength":8064,
			"byteOffset":3879984,
			"target":34962
		},
		{
			"buffer":0,
			"byteLength":5376,
			"byteOffset":3888048,
			"target":34962
		},
		{
			"buffer":0,
			"byteLength":8064,
			"byteOffset":3893424,
			"target":34962
		},
		{
			"buffer":0,
			"byteLength":1344,
			"byteOffset":3901488,
			"target":34963
		},
		{
			"buffer":0,
			"byteLength":10848,
			"byteOffset":3902832,
			"target":34962
		},
		{
			"buffer":0,
			"byteLength":10848,
			"byteOffset":3913680,
			"target":34962
		},
		{
			"buffer":0,
			"byteLength":7232,
			"byteOffset":3924528,
			"target":34962
		},
		{
			"buffer":0,
			"byteLength":10848,
			"byteOffset":3931760,
			"target":34962
		},
		{
			"buffer":0,
			"byteLength":2520,
			"byteOffset":3942608,
			"target":34963
		},
		{
			"buffer":0,
			"byteLength":36672,
			"byteOffset":3945128,
			"target":34962
		},
		{
			"buffer":0,
			"byteLength":36672,
			"byteOffset":3981800,
			"target":34962
		},
		{
			"buffer":0,
			"byteLength":24448,
			"byteOffset":4018472,
			"target":34962
		},
		{
			"buffer":0,
			"byteLength":36672,
			"byteOffset":4042920,
			"target":34962
		},
		{
			"buffer":0,
			"byteLength":6120,
			"byteOffset":4079592,
			"target":34963
		},
		{
			"buffer":0,
			"byteLength":104844,
			"byteOffset":4085712,
			"target":34962
		},
		{
			"buffer":0,
			"byteLength":104844,
			"byteOffset":4190556,
			"target":34962
		},
		{
			"buffer":0,
			"byteLength":69896,
			"byteOffset":4295400,
			"target":34962
		},
		{
			"buffer":0,
			"byteLength":104844,
			"byteOffset":4365296,
			"target":34962
		},
		{
			"buffer":0,
			"byteLength":18072,
			"byteOffset":4470140,
			"target":34963
		},
		{
			"buffer":0,
			"byteLength":109884,
			"byteOffset":4488212,
			"target":34962
		},
		{
			"buffer":0,
			"byteLength":109884,
			"byteOffset":4598096,
			"target":34962
		},
		{
			"buffer":0,
			"byteLength":73256,
			"byteOffset":4707980,
			"target":34962
		},
		{
			"buffer":0,
			"byteLength":109884,
			"byteOffset":4781236,
			"target":34962
		},
		{
			"buffer":0,
			"byteLength":22356,
			"byteOffset":4891120,
			"target":34963
		}
	],
	"samplers":[
		{
			"magFilter":9729,
			"minFilter":9987
		}
	],
	"buffers":[
		{
			"byteLength":4913476,
			"uri":"farm.bin"
		}
	]
}
