{
	"asset":{
		"generator":"Khronos glTF Blender I/O v4.3.47",
		"version":"2.0"
	},
	"extensionsUsed":[
		"KHR_materials_specular"
	],
	"scene":0,
	"scenes":[
		{
			"name":"Scene",
			"nodes":[
				0
			]
		}
	],
	"nodes":[
		{
			"mesh":0,
			"name":"Mountain",
			"rotation":[
				0.70710688829422,
				0,
				0,
				0.7071066498756409
			],
			"scale":[
				9.18540096282959,
				9.18540096282959,
				9.18540096282959
			],
			"translation":[
				1.399999976158142,
				0,
				-1.0511764287948608
			]
		}
	],
	"materials":[
		{
			"doubleSided":true,
			"extensions":{
				"KHR_materials_specular":{
					"specularFactor":0.39259257912635803
				}
			},
			"name":"A",
			"pbrMetallicRoughness":{
				"baseColorFactor":[
					0.08001174032688141,
					0.08001174032688141,
					0.08001174032688141,
					1
				],
				"metallicFactor":0,
				"roughnessFactor":0.5
			}
		},
		{
			"doubleSided":true,
			"extensions":{
				"KHR_materials_specular":{
					"specularColorFactor":[
						2.0,
						2.0,
						2.0
					]
				}
			},
			"name":"B",
			"pbrMetallicRoughness":{
				"baseColorFactor":[
					0.800000011920929,
					0.800000011920929,
					0.800000011920929,
					1
				],
				"metallicFactor":0,
				"roughnessFactor":0.5
			}
		}
	],
	"meshes":[
		{
			"name":"MountainGen M1.002",
			"primitives":[
				{
					"attributes":{
						"POSITION":0,
						"NORMAL":1,
						"TEXCOORD_0":2
					},
					"indices":3,
					"material":0
				},
				{
					"attributes":{
						"POSITION":4,
						"NORMAL":5,
						"TEXCOORD_0":6
					},
					"indices":7,
					"material":1
				}
			]
		}
	],
	"accessors":[
		{
			"bufferView":0,
			"componentType":5126,
			"count":300,
			"max":[
				0.2948618233203888,
				0.3120118975639343,
				0.019325891509652138
			],
			"min":[
				-0.32222598791122437,
				-0.3401317298412323,
				-0.24991056323051453
			],
			"type":"VEC3"
		},
		{
			"bufferView":1,
			"componentType":5126,
			"count":300,
			"type":"VEC3"
		},
		{
			"bufferView":2,
			"componentType":5126,
			"count":300,
			"type":"VEC2"
		},
		{
			"bufferView":3,
			"componentType":5123,
			"count":300,
			"type":"SCALAR"
		},
		{
			"bufferView":4,
			"componentType":5126,
			"count":45,
			"max":[
				0.2948618233203888,
				0.14441443979740143,
				0.007447447627782822
			],
			"min":[
				-0.30723342299461365,
				-0.13043390214443207,
				-0.24991056323051453
			],
			"type":"VEC3"
		},
		{
			"bufferView":5,
			"componentType":5126,
			"count":45,
			"type":"VEC3"
		},
		{
			"bufferView":6,
			"componentType":5126,
			"count":45,
			"type":"VEC2"
		},
		{
			"bufferView":7,
			"componentType":5123,
			"count":45,
			"type":"SCALAR"
		}
	],
	"bufferViews":[
		{
			"buffer":0,
			"byteLength":3600,
			"byteOffset":0,
			"target":34962
		},
		{
			"buffer":0,
			"byteLength":3600,
			"byteOffset":3600,
			"target":34962
		},
		{
			"buffer":0,
			"byteLength":2400,
			"byteOffset":7200,
			"target":34962
		},
		{
			"buffer":0,
			"byteLength":600,
			"byteOffset":9600,
			"target":34963
		},
		{
			"buffer":0,
			"byteLength":540,
			"byteOffset":10200,
			"target":34962
		},
		{
			"buffer":0,
			"byteLength":540,
			"byteOffset":10740,
			"target":34962
		},
		{
			"buffer":0,
			"byteLength":360,
			"byteOffset":11280,
			"target":34962
		},
		{
			"buffer":0,
			"byteLength":90,
			"byteOffset":11640,
			"target":34963
		}
	],
	"buffers":[
		{
			"byteLength":11732,
			"uri":"Moutain1.bin"
		}
	]
}
