{
	"asset":{
		"generator":"Khronos glTF Blender I/O v4.3.47",
		"version":"2.0"
	},
	"extensionsUsed":[
		"KHR_materials_specular"
	],
	"scene":0,
	"scenes":[
		{
			"name":"Scene",
			"nodes":[
				0
			]
		}
	],
	"nodes":[
		{
			"mesh":0,
			"name":"Mountain",
			"rotation":[
				0.70710688829422,
				0,
				0,
				0.7071066498756409
			],
			"scale":[
				9.18540096282959,
				9.18540096282959,
				9.18540096282959
			],
			"translation":[
				1.399999976158142,
				0,
				-1.0511764287948608
			]
		}
	],
	"materials":[
		{
			"doubleSided":true,
			"extensions":{
				"KHR_materials_specular":{
					"specularFactor":0.39259257912635803
				}
			},
			"name":"A",
			"pbrMetallicRoughness":{
				"baseColorFactor":[
					0.08001174032688141,
					0.08001174032688141,
					0.08001174032688141,
					1
				],
				"metallicFactor":0,
				"roughnessFactor":0.5
			}
		},
		{
			"doubleSided":true,
			"extensions":{
				"KHR_materials_specular":{
					"specularColorFactor":[
						2.0,
						2.0,
						2.0
					]
				}
			},
			"name":"B",
			"pbrMetallicRoughness":{
				"baseColorFactor":[
					0.800000011920929,
					0.800000011920929,
					0.800000011920929,
					1
				],
				"metallicFactor":0,
				"roughnessFactor":0.5
			}
		}
	],
	"meshes":[
		{
			"name":"MountainGen M1.002",
			"primitives":[
				{
					"attributes":{
						"POSITION":0,
						"NORMAL":1,
						"TEXCOORD_0":2
					},
					"indices":3,
					"material":0
				},
				{
					"attributes":{
						"POSITION":4,
						"NORMAL":5,
						"TEXCOORD_0":6
					},
					"indices":7,
					"material":1
				}
			]
		}
	],
	"accessors":[
		{
			"bufferView":0,
			"componentType":5126,
			"count":11721,
			"max":[
				0.30035215616226196,
				0.31255072355270386,
				0.0005401702364906669
			],
			"min":[
				-0.3238792419433594,
				-0.3440108895301819,
				-0.2491554468870163
			],
			"type":"VEC3"
		},
		{
			"bufferView":1,
			"componentType":5126,
			"count":11721,
			"type":"VEC3"
		},
		{
			"bufferView":2,
			"componentType":5126,
			"count":11721,
			"type":"VEC2"
		},
		{
			"bufferView":3,
			"componentType":5123,
			"count":11721,
			"type":"SCALAR"
		},
		{
			"bufferView":4,
			"componentType":5126,
			"count":3690,
			"max":[
				0.29656267166137695,
				0.24631163477897644,
				0.00013634935021400452
			],
			"min":[
				-0.22347839176654816,
				-0.24527989327907562,
				-0.2491554468870163
			],
			"type":"VEC3"
		},
		{
			"bufferView":5,
			"componentType":5126,
			"count":3690,
			"type":"VEC3"
		},
		{
			"bufferView":6,
			"componentType":5126,
			"count":3690,
			"type":"VEC2"
		},
		{
			"bufferView":7,
			"componentType":5123,
			"count":3690,
			"type":"SCALAR"
		}
	],
	"bufferViews":[
		{
			"buffer":0,
			"byteLength":140652,
			"byteOffset":0,
			"target":34962
		},
		{
			"buffer":0,
			"byteLength":140652,
			"byteOffset":140652,
			"target":34962
		},
		{
			"buffer":0,
			"byteLength":93768,
			"byteOffset":281304,
			"target":34962
		},
		{
			"buffer":0,
			"byteLength":23442,
			"byteOffset":375072,
			"target":34963
		},
		{
			"buffer":0,
			"byteLength":44280,
			"byteOffset":398516,
			"target":34962
		},
		{
			"buffer":0,
			"byteLength":44280,
			"byteOffset":442796,
			"target":34962
		},
		{
			"buffer":0,
			"byteLength":29520,
			"byteOffset":487076,
			"target":34962
		},
		{
			"buffer":0,
			"byteLength":7380,
			"byteOffset":516596,
			"target":34963
		}
	],
	"buffers":[
		{
			"byteLength":523976,
			"uri":"Moutain0.bin"
		}
	]
}
