{
	"asset":{
		"generator":"Khronos glTF Blender I/O v4.3.47",
		"version":"2.0"
	},
	"extensionsUsed":[
		"KHR_materials_emissive_strength"
	],
	"scene":0,
	"scenes":[
		{
			"name":"Scene",
			"nodes":[
				6
			]
		}
	],
	"nodes":[
		{
			"mesh":0,
			"name":"pPlane1_phong2_0",
			"scale":[
				0.10000000149011612,
				0.09999998658895493,
				0.09999998658895493
			],
			"translation":[
				-36.060951232910156,
				325.3138427734375,
				394.25872802734375
			]
		},
		{
			"children":[
				0
			],
			"name":"pPlane1",
			"translation":[
				0,
				-212.76451110839844,
				-143.4852752685547
			]
		},
		{
			"children":[
				1
			],
			"name":"group3",
			"translation":[
				0,
				0,
				-197.18833923339844
			]
		},
		{
			"children":[
				2
			],
			"name":"RootNode"
		},
		{
			"children":[
				3
			],
			"name":"Object_2"
		},
		{
			"children":[
				4
			],
			"name":"26ffb63a01dc42f39d790a90190c7d18.fbx",
			"rotation":[
				0.70710688829422,
				0,
				0,
				0.7071066498756409
			],
			"scale":[
				0.009999999776482582,
				0.009999999776482582,
				0.009999999776482582
			]
		},
		{
			"children":[
				5
			],
			"name":"Sketchfab_model",
			"rotation":[
				-0.70710688829422,
				0,
				0,
				0.7071066498756409
			]
		}
	],
	"materials":[
		{
			"doubleSided":true,
			"name":"phong2",
			"pbrMetallicRoughness":{
				"baseColorFactor":[
					0.22653400897979736,
					0.1560351848602295,
					0.1560351848602295,
					1
				],
				"metallicFactor":0,
				"roughnessFactor":0.8942628502845764
			}
		},
		{
			"doubleSided":true,
			"name":"phong10",
			"pbrMetallicRoughness":{
				"baseColorFactor":[
					0.10021823644638062,
					0.030604925006628036,
					0.030604925006628036,
					1
				],
				"metallicFactor":0,
				"roughnessFactor":0.8942628502845764
			}
		},
		{
			"doubleSided":true,
			"name":"pasted__tree_trunk",
			"pbrMetallicRoughness":{
				"baseColorFactor":[
					0.09760766476392746,
					0.047416266053915024,
					0.02059420756995678,
					1
				],
				"metallicFactor":0,
				"roughnessFactor":0.8942628502845764
			}
		},
		{
			"doubleSided":true,
			"emissiveFactor":[
				1,
				0,
				0
			],
			"extensions":{
				"KHR_materials_emissive_strength":{
					"emissiveStrength":2
				}
			},
			"name":"phong3",
			"pbrMetallicRoughness":{
				"baseColorFactor":[
					0.7241664528846741,
					0.360904723405838,
					0.026255011558532715,
					1
				],
				"metallicFactor":0,
				"roughnessFactor":0.8942628502845764
			}
		},
		{
			"doubleSided":true,
			"name":"phong9",
			"pbrMetallicRoughness":{
				"baseColorFactor":[
					0.2071000039577484,
					0.15839999914169312,
					0.15839999914169312,
					1
				],
				"metallicFactor":0,
				"roughnessFactor":0.8942628502845764
			}
		}
	],
	"meshes":[
		{
			"name":"pPlane1_phong2_0",
			"primitives":[
				{
					"attributes":{
						"POSITION":0,
						"NORMAL":1,
						"TEXCOORD_0":2
					},
					"indices":3,
					"material":0
				},
				{
					"attributes":{
						"POSITION":4,
						"NORMAL":5,
						"TEXCOORD_0":6
					},
					"indices":7,
					"material":1
				},
				{
					"attributes":{
						"POSITION":8,
						"NORMAL":9,
						"TEXCOORD_0":10
					},
					"indices":11,
					"material":2
				},
				{
					"attributes":{
						"POSITION":12,
						"NORMAL":13,
						"TEXCOORD_0":14
					},
					"indices":15,
					"material":3
				},
				{
					"attributes":{
						"POSITION":16,
						"NORMAL":17,
						"TEXCOORD_0":18
					},
					"indices":19,
					"material":4
				}
			]
		}
	],
	"accessors":[
		{
			"bufferView":0,
			"componentType":5126,
			"count":10698,
			"max":[
				4773.93115234375,
				1264.76806640625,
				3889.18603515625
			],
			"min":[
				-3819.4912109375,
				-1253.596923828125,
				-4853.763671875
			],
			"type":"VEC3"
		},
		{
			"bufferView":1,
			"componentType":5126,
			"count":10698,
			"type":"VEC3"
		},
		{
			"bufferView":2,
			"componentType":5126,
			"count":10698,
			"type":"VEC2"
		},
		{
			"bufferView":3,
			"componentType":5123,
			"count":10698,
			"type":"SCALAR"
		},
		{
			"bufferView":4,
			"componentType":5126,
			"count":1032,
			"max":[
				3117.10400390625,
				787.072265625,
				1509.9080810546875
			],
			"min":[
				280.9444580078125,
				-872.6961669921875,
				-2593.37939453125
			],
			"type":"VEC3"
		},
		{
			"bufferView":5,
			"componentType":5126,
			"count":1032,
			"type":"VEC3"
		},
		{
			"bufferView":6,
			"componentType":5126,
			"count":1032,
			"type":"VEC2"
		},
		{
			"bufferView":7,
			"componentType":5123,
			"count":1032,
			"type":"SCALAR"
		},
		{
			"bufferView":8,
			"componentType":5126,
			"count":12582,
			"max":[
				2805.51025390625,
				-31.581649780273438,
				-1134.088623046875
			],
			"min":[
				1358.601806640625,
				-705.7130126953125,
				-3253.45068359375
			],
			"type":"VEC3"
		},
		{
			"bufferView":9,
			"componentType":5126,
			"count":12582,
			"type":"VEC3"
		},
		{
			"bufferView":10,
			"componentType":5126,
			"count":12582,
			"type":"VEC2"
		},
		{
			"bufferView":11,
			"componentType":5123,
			"count":12582,
			"type":"SCALAR"
		},
		{
			"bufferView":12,
			"componentType":5126,
			"count":849,
			"max":[
				1095.469482421875,
				1260.7900390625,
				508.2130126953125
			],
			"min":[
				-1359.2679443359375,
				-1236.006103515625,
				-3857.49462890625
			],
			"type":"VEC3"
		},
		{
			"bufferView":13,
			"componentType":5126,
			"count":849,
			"type":"VEC3"
		},
		{
			"bufferView":14,
			"componentType":5126,
			"count":849,
			"type":"VEC2"
		},
		{
			"bufferView":15,
			"componentType":5123,
			"count":915,
			"type":"SCALAR"
		},
		{
			"bufferView":16,
			"componentType":5126,
			"count":141,
			"max":[
				3860.78173828125,
				1187.38134765625,
				3005.10107421875
			],
			"min":[
				-1981.4051513671875,
				-991.365478515625,
				-3059.11865234375
			],
			"type":"VEC3"
		},
		{
			"bufferView":17,
			"componentType":5126,
			"count":141,
			"type":"VEC3"
		},
		{
			"bufferView":18,
			"componentType":5126,
			"count":141,
			"type":"VEC2"
		},
		{
			"bufferView":19,
			"componentType":5123,
			"count":141,
			"type":"SCALAR"
		}
	],
	"bufferViews":[
		{
			"buffer":0,
			"byteLength":128376,
			"byteOffset":0,
			"target":34962
		},
		{
			"buffer":0,
			"byteLength":128376,
			"byteOffset":128376,
			"target":34962
		},
		{
			"buffer":0,
			"byteLength":85584,
			"byteOffset":256752,
			"target":34962
		},
		{
			"buffer":0,
			"byteLength":21396,
			"byteOffset":342336,
			"target":34963
		},
		{
			"buffer":0,
			"byteLength":12384,
			"byteOffset":363732,
			"target":34962
		},
		{
			"buffer":0,
			"byteLength":12384,
			"byteOffset":376116,
			"target":34962
		},
		{
			"buffer":0,
			"byteLength":8256,
			"byteOffset":388500,
			"target":34962
		},
		{
			"buffer":0,
			"byteLength":2064,
			"byteOffset":396756,
			"target":34963
		},
		{
			"buffer":0,
			"byteLength":150984,
			"byteOffset":398820,
			"target":34962
		},
		{
			"buffer":0,
			"byteLength":150984,
			"byteOffset":549804,
			"target":34962
		},
		{
			"buffer":0,
			"byteLength":100656,
			"byteOffset":700788,
			"target":34962
		},
		{
			"buffer":0,
			"byteLength":25164,
			"byteOffset":801444,
			"target":34963
		},
		{
			"buffer":0,
			"byteLength":10188,
			"byteOffset":826608,
			"target":34962
		},
		{
			"buffer":0,
			"byteLength":10188,
			"byteOffset":836796,
			"target":34962
		},
		{
			"buffer":0,
			"byteLength":6792,
			"byteOffset":846984,
			"target":34962
		},
		{
			"buffer":0,
			"byteLength":1830,
			"byteOffset":853776,
			"target":34963
		},
		{
			"buffer":0,
			"byteLength":1692,
			"byteOffset":855608,
			"target":34962
		},
		{
			"buffer":0,
			"byteLength":1692,
			"byteOffset":857300,
			"target":34962
		},
		{
			"buffer":0,
			"byteLength":1128,
			"byteOffset":858992,
			"target":34962
		},
		{
			"buffer":0,
			"byteLength":282,
			"byteOffset":860120,
			"target":34963
		}
	],
	"buffers":[
		{
			"byteLength":860404,
			"uri":"metal1.bin"
		}
	]
}
