{
	"asset":{
		"generator":"Khronos glTF Blender I/O v4.3.47",
		"version":"2.0"
	},
	"scene":0,
	"scenes":[
		{
			"name":"Scene",
			"nodes":[
				0
			]
		}
	],
	"nodes":[
		{
			"mesh":0,
			"name":"Box011_02 - Default\ufffd\ufffd_0",
			"rotation":[
				-0.3535534143447876,
				-0.6123724579811096,
				-0.6123723983764648,
				0.3535534143447876
			],
			"scale":[
				0.13904179632663727,
				0.1390417516231537,
				0.13904178142547607
			],
			"translation":[
				3.318861961364746,
				11.754522323608398,
				-6.837030410766602
			]
		}
	],
	"materials":[
		{
			"doubleSided":true,
			"name":"02_-_Default_6",
			"pbrMetallicRoughness":{
				"baseColorFactor":[
					0.4627450108528137,
					0.5098040103912354,
					0.5098040103912354,
					1
				],
				"metallicFactor":0,
				"roughnessFactor":0.8929713368415833
			}
		},
		{
			"doubleSided":true,
			"name":"13_-_Default",
			"pbrMetallicRoughness":{
				"baseColorFactor":[
					0.5882350206375122,
					0.34117600321769714,
					0.0784313976764679,
					1
				],
				"metallicFactor":0,
				"roughnessFactor":0.8929713368415833
			}
		},
		{
			"doubleSided":true,
			"name":"16_-_Default",
			"pbrMetallicRoughness":{
				"baseColorFactor":[
					0.04313730075955391,
					0.23529399931430817,
					0.6666669845581055,
					1
				],
				"metallicFactor":0,
				"roughnessFactor":0.8929713368415833
			}
		},
		{
			"doubleSided":true,
			"name":"17_-_Default",
			"pbrMetallicRoughness":{
				"baseColorFactor":[
					0.5882350206375122,
					0.03137259930372238,
					0.03137259930372238,
					1
				],
				"metallicFactor":0,
				"roughnessFactor":0.8929713368415833
			}
		},
		{
			"doubleSided":true,
			"name":"14_-_Default",
			"pbrMetallicRoughness":{
				"baseColorFactor":[
					0.003921569790691137,
					0.003921569790691137,
					0.003921569790691137,
					1
				],
				"metallicFactor":0,
				"roughnessFactor":0.8929713368415833
			}
		},
		{
			"doubleSided":true,
			"name":"15_-_Default",
			"pbrMetallicRoughness":{
				"baseColorFactor":[
					0.10588199645280838,
					0.05490199849009514,
					0.20000000298023224,
					1
				],
				"metallicFactor":0,
				"roughnessFactor":0.8929713368415833
			}
		},
		{
			"doubleSided":true,
			"name":"02_-_Default",
			"pbrMetallicRoughness":{
				"baseColorFactor":[
					0.19215700030326843,
					0.5764709711074829,
					0.5803920030593872,
					1
				],
				"metallicFactor":0,
				"roughnessFactor":0.8929713368415833
			}
		},
		{
			"doubleSided":true,
			"name":"01_-_Default",
			"pbrMetallicRoughness":{
				"baseColorFactor":[
					0.11372499912977219,
					0.11372499912977219,
					0.11372499912977219,
					1
				],
				"metallicFactor":0,
				"roughnessFactor":0.8929713368415833
			}
		},
		{
			"doubleSided":true,
			"name":"07_-_Default",
			"pbrMetallicRoughness":{
				"baseColorFactor":[
					0.12156900018453598,
					0.2705880105495453,
					0.2705880105495453,
					1
				],
				"metallicFactor":0,
				"roughnessFactor":0.8929713368415833
			}
		}
	],
	"meshes":[
		{
			"name":"Box011_02 - Default\ufffd\ufffd_0",
			"primitives":[
				{
					"attributes":{
						"POSITION":0,
						"NORMAL":1,
						"TEXCOORD_0":2
					},
					"indices":3,
					"material":0
				},
				{
					"attributes":{
						"POSITION":4,
						"NORMAL":5,
						"TEXCOORD_0":6
					},
					"indices":7,
					"material":1
				},
				{
					"attributes":{
						"POSITION":8,
						"NORMAL":9,
						"TEXCOORD_0":10
					},
					"indices":11,
					"material":2
				},
				{
					"attributes":{
						"POSITION":12,
						"NORMAL":13,
						"TEXCOORD_0":14
					},
					"indices":15,
					"material":3
				},
				{
					"attributes":{
						"POSITION":16,
						"NORMAL":17,
						"TEXCOORD_0":18
					},
					"indices":19,
					"material":4
				},
				{
					"attributes":{
						"POSITION":20,
						"NORMAL":21,
						"TEXCOORD_0":22
					},
					"indices":19,
					"material":5
				},
				{
					"attributes":{
						"POSITION":23,
						"NORMAL":24,
						"TEXCOORD_0":25
					},
					"indices":26,
					"material":6
				},
				{
					"attributes":{
						"POSITION":27,
						"NORMAL":28,
						"TEXCOORD_0":29
					},
					"indices":30,
					"material":7
				},
				{
					"attributes":{
						"POSITION":31,
						"NORMAL":32,
						"TEXCOORD_0":33
					},
					"indices":30,
					"material":8
				}
			]
		}
	],
	"accessors":[
		{
			"bufferView":0,
			"componentType":5126,
			"count":2288,
			"max":[
				123.73387908935547,
				75.96668243408203,
				28.16742706298828
			],
			"min":[
				-15.715827941894531,
				-61.548736572265625,
				-84.8946762084961
			],
			"type":"VEC3"
		},
		{
			"bufferView":1,
			"componentType":5126,
			"count":2288,
			"type":"VEC3"
		},
		{
			"bufferView":2,
			"componentType":5126,
			"count":2288,
			"type":"VEC2"
		},
		{
			"bufferView":3,
			"componentType":5123,
			"count":3888,
			"type":"SCALAR"
		},
		{
			"bufferView":4,
			"componentType":5126,
			"count":54,
			"max":[
				83.6954345703125,
				18.456642150878906,
				-16.500782012939453
			],
			"min":[
				42.130531311035156,
				-4.567766189575195,
				-87.08834838867188
			],
			"type":"VEC3"
		},
		{
			"bufferView":5,
			"componentType":5126,
			"count":54,
			"type":"VEC3"
		},
		{
			"bufferView":6,
			"componentType":5126,
			"count":54,
			"type":"VEC2"
		},
		{
			"bufferView":7,
			"componentType":5123,
			"count":108,
			"type":"SCALAR"
		},
		{
			"bufferView":8,
			"componentType":5126,
			"count":26,
			"max":[
				81.24666595458984,
				33.920562744140625,
				5.563220977783203
			],
			"min":[
				18.08163833618164,
				-28.394615173339844,
				-52.59551239013672
			],
			"type":"VEC3"
		},
		{
			"bufferView":9,
			"componentType":5126,
			"count":26,
			"type":"VEC3"
		},
		{
			"bufferView":10,
			"componentType":5126,
			"count":26,
			"type":"VEC2"
		},
		{
			"bufferView":11,
			"componentType":5123,
			"count":72,
			"type":"SCALAR"
		},
		{
			"bufferView":12,
			"componentType":5126,
			"count":22,
			"max":[
				78.62767791748047,
				38.73448181152344,
				-3.1427268981933594
			],
			"min":[
				28.39208984375,
				-11.395559310913086,
				-49.77082443237305
			],
			"type":"VEC3"
		},
		{
			"bufferView":13,
			"componentType":5126,
			"count":22,
			"type":"VEC3"
		},
		{
			"bufferView":14,
			"componentType":5126,
			"count":22,
			"type":"VEC2"
		},
		{
			"bufferView":15,
			"componentType":5123,
			"count":60,
			"type":"SCALAR"
		},
		{
			"bufferView":16,
			"componentType":5126,
			"count":24,
			"max":[
				51.4218864440918,
				15.552674293518066,
				-57.713233947753906
			],
			"min":[
				44.75543212890625,
				8.20045280456543,
				-63.043148040771484
			],
			"type":"VEC3"
		},
		{
			"bufferView":17,
			"componentType":5126,
			"count":24,
			"type":"VEC3"
		},
		{
			"bufferView":18,
			"componentType":5126,
			"count":24,
			"type":"VEC2"
		},
		{
			"bufferView":19,
			"componentType":5123,
			"count":36,
			"type":"SCALAR"
		},
		{
			"bufferView":20,
			"componentType":5126,
			"count":24,
			"max":[
				60.843170166015625,
				8.840910911560059,
				-67.89537048339844
			],
			"min":[
				55.238853454589844,
				3.293045997619629,
				-71.67193603515625
			],
			"type":"VEC3"
		},
		{
			"bufferView":21,
			"componentType":5126,
			"count":24,
			"type":"VEC3"
		},
		{
			"bufferView":22,
			"componentType":5126,
			"count":24,
			"type":"VEC2"
		},
		{
			"bufferView":23,
			"componentType":5126,
			"count":1524,
			"max":[
				126.48922729492188,
				75.61456298828125,
				28.08662986755371
			],
			"min":[
				-14.13062572479248,
				-55.203529357910156,
				-85.14126586914062
			],
			"type":"VEC3"
		},
		{
			"bufferView":24,
			"componentType":5126,
			"count":1524,
			"type":"VEC3"
		},
		{
			"bufferView":25,
			"componentType":5126,
			"count":1524,
			"type":"VEC2"
		},
		{
			"bufferView":26,
			"componentType":5123,
			"count":2592,
			"type":"SCALAR"
		},
		{
			"bufferView":27,
			"componentType":5126,
			"count":8320,
			"max":[
				113.13859558105469,
				63.92375183105469,
				11.864547729492188
			],
			"min":[
				-6.007152557373047,
				-60.765342712402344,
				-85.42415618896484
			],
			"type":"VEC3"
		},
		{
			"bufferView":28,
			"componentType":5126,
			"count":8320,
			"type":"VEC3"
		},
		{
			"bufferView":29,
			"componentType":5126,
			"count":8320,
			"type":"VEC2"
		},
		{
			"bufferView":30,
			"componentType":5123,
			"count":12480,
			"type":"SCALAR"
		},
		{
			"bufferView":31,
			"componentType":5126,
			"count":8320,
			"max":[
				108.43487548828125,
				63.60606384277344,
				11.864547729492188
			],
			"min":[
				-9.219131469726562,
				-58.24654006958008,
				-85.42415618896484
			],
			"type":"VEC3"
		},
		{
			"bufferView":32,
			"componentType":5126,
			"count":8320,
			"type":"VEC3"
		},
		{
			"bufferView":33,
			"componentType":5126,
			"count":8320,
			"type":"VEC2"
		}
	],
	"bufferViews":[
		{
			"buffer":0,
			"byteLength":27456,
			"byteOffset":0,
			"target":34962
		},
		{
			"buffer":0,
			"byteLength":27456,
			"byteOffset":27456,
			"target":34962
		},
		{
			"buffer":0,
			"byteLength":18304,
			"byteOffset":54912,
			"target":34962
		},
		{
			"buffer":0,
			"byteLength":7776,
			"byteOffset":73216,
			"target":34963
		},
		{
			"buffer":0,
			"byteLength":648,
			"byteOffset":80992,
			"target":34962
		},
		{
			"buffer":0,
			"byteLength":648,
			"byteOffset":81640,
			"target":34962
		},
		{
			"buffer":0,
			"byteLength":432,
			"byteOffset":82288,
			"target":34962
		},
		{
			"buffer":0,
			"byteLength":216,
			"byteOffset":82720,
			"target":34963
		},
		{
			"buffer":0,
			"byteLength":312,
			"byteOffset":82936,
			"target":34962
		},
		{
			"buffer":0,
			"byteLength":312,
			"byteOffset":83248,
			"target":34962
		},
		{
			"buffer":0,
			"byteLength":208,
			"byteOffset":83560,
			"target":34962
		},
		{
			"buffer":0,
			"byteLength":144,
			"byteOffset":83768,
			"target":34963
		},
		{
			"buffer":0,
			"byteLength":264,
			"byteOffset":83912,
			"target":34962
		},
		{
			"buffer":0,
			"byteLength":264,
			"byteOffset":84176,
			"target":34962
		},
		{
			"buffer":0,
			"byteLength":176,
			"byteOffset":84440,
			"target":34962
		},
		{
			"buffer":0,
			"byteLength":120,
			"byteOffset":84616,
			"target":34963
		},
		{
			"buffer":0,
			"byteLength":288,
			"byteOffset":84736,
			"target":34962
		},
		{
			"buffer":0,
			"byteLength":288,
			"byteOffset":85024,
			"target":34962
		},
		{
			"buffer":0,
			"byteLength":192,
			"byteOffset":85312,
			"target":34962
		},
		{
			"buffer":0,
			"byteLength":72,
			"byteOffset":85504,
			"target":34963
		},
		{
			"buffer":0,
			"byteLength":288,
			"byteOffset":85576,
			"target":34962
		},
		{
			"buffer":0,
			"byteLength":288,
			"byteOffset":85864,
			"target":34962
		},
		{
			"buffer":0,
			"byteLength":192,
			"byteOffset":86152,
			"target":34962
		},
		{
			"buffer":0,
			"byteLength":18288,
			"byteOffset":86344,
			"target":34962
		},
		{
			"buffer":0,
			"byteLength":18288,
			"byteOffset":104632,
			"target":34962
		},
		{
			"buffer":0,
			"byteLength":12192,
			"byteOffset":122920,
			"target":34962
		},
		{
			"buffer":0,
			"byteLength":5184,
			"byteOffset":135112,
			"target":34963
		},
		{
			"buffer":0,
			"byteLength":99840,
			"byteOffset":140296,
			"target":34962
		},
		{
			"buffer":0,
			"byteLength":99840,
			"byteOffset":240136,
			"target":34962
		},
		{
			"buffer":0,
			"byteLength":66560,
			"byteOffset":339976,
			"target":34962
		},
		{
			"buffer":0,
			"byteLength":24960,
			"byteOffset":406536,
			"target":34963
		},
		{
			"buffer":0,
			"byteLength":99840,
			"byteOffset":431496,
			"target":34962
		},
		{
			"buffer":0,
			"byteLength":99840,
			"byteOffset":531336,
			"target":34962
		},
		{
			"buffer":0,
			"byteLength":66560,
			"byteOffset":631176,
			"target":34962
		}
	],
	"buffers":[
		{
			"byteLength":697736,
			"uri":"tornado.bin"
		}
	]
}
