{
	"asset":{
		"generator":"Khronos glTF Blender I/O v4.3.47",
		"version":"2.0"
	},
	"extensionsUsed":[
		"KHR_materials_specular",
		"KHR_materials_ior"
	],
	"scene":0,
	"scenes":[
		{
			"name":"Scene",
			"nodes":[
				0
			]
		}
	],
	"nodes":[
		{
			"mesh":0,
			"name":"NAVEFIN.005",
			"rotation":[
				0.07177440822124481,
				0.031245138496160507,
				0.08064594864845276,
				0.9936641454696655
			],
			"translation":[
				0,
				7.288200855255127,
				0
			]
		}
	],
	"materials":[
		{
			"doubleSided":true,
			"extensions":{
				"KHR_materials_specular":{
					"specularFactor":0
				}
			},
			"name":"lambert19SG",
			"normalTexture":{
				"index":0,
				"texCoord":1
			},
			"pbrMetallicRoughness":{
				"baseColorTexture":{
					"index":1
				},
				"metallicRoughnessTexture":{
					"index":2,
					"texCoord":1
				}
			}
		},
		{
			"doubleSided":true,
			"extensions":{
				"KHR_materials_specular":{
					"specularFactor":0
				}
			},
			"name":"lambert21SG",
			"normalTexture":{
				"index":3,
				"texCoord":1
			},
			"pbrMetallicRoughness":{
				"baseColorTexture":{
					"index":4
				},
				"metallicRoughnessTexture":{
					"index":5,
					"texCoord":1
				}
			}
		},
		{
			"doubleSided":true,
			"extensions":{
				"KHR_materials_specular":{
					"specularFactor":0
				}
			},
			"name":"lambert20SG",
			"normalTexture":{
				"index":6,
				"texCoord":1
			},
			"pbrMetallicRoughness":{
				"baseColorTexture":{
					"index":7
				},
				"metallicRoughnessTexture":{
					"index":8,
					"texCoord":1
				}
			}
		},
		{
			"doubleSided":true,
			"extensions":{
				"KHR_materials_specular":{
					"specularFactor":0
				},
				"KHR_materials_ior":{
					"ior":1.2999999523162842
				}
			},
			"name":"lambert16SG",
			"pbrMetallicRoughness":{
				"baseColorTexture":{
					"index":9
				},
				"metallicRoughnessTexture":{
					"index":10,
					"texCoord":1
				}
			}
		},
		{
			"doubleSided":true,
			"extensions":{
				"KHR_materials_specular":{
					"specularFactor":0
				}
			},
			"name":"lambert15SG",
			"normalTexture":{
				"index":11,
				"texCoord":1
			},
			"pbrMetallicRoughness":{
				"baseColorTexture":{
					"index":12
				},
				"metallicRoughnessTexture":{
					"index":13,
					"texCoord":1
				}
			}
		}
	],
	"meshes":[
		{
			"name":"NAVEFIN.009",
			"primitives":[
				{
					"attributes":{
						"POSITION":0,
						"NORMAL":1,
						"TEXCOORD_0":2,
						"TEXCOORD_1":3
					},
					"indices":4,
					"material":0
				},
				{
					"attributes":{
						"POSITION":5,
						"NORMAL":6,
						"TEXCOORD_0":7,
						"TEXCOORD_1":8
					},
					"indices":9,
					"material":1
				},
				{
					"attributes":{
						"POSITION":10,
						"NORMAL":11,
						"TEXCOORD_0":12,
						"TEXCOORD_1":13
					},
					"indices":14,
					"material":2
				},
				{
					"attributes":{
						"POSITION":15,
						"NORMAL":16,
						"TEXCOORD_0":17,
						"TEXCOORD_1":18
					},
					"indices":19,
					"material":3
				},
				{
					"attributes":{
						"POSITION":20,
						"NORMAL":21,
						"TEXCOORD_0":22,
						"TEXCOORD_1":23
					},
					"indices":24,
					"material":4
				}
			]
		}
	],
	"textures":[
		{
			"sampler":0,
			"source":0
		},
		{
			"sampler":0,
			"source":1
		},
		{
			"sampler":0,
			"source":2
		},
		{
			"sampler":0,
			"source":3
		},
		{
			"sampler":0,
			"source":4
		},
		{
			"sampler":0,
			"source":5
		},
		{
			"sampler":0,
			"source":6
		},
		{
			"sampler":0,
			"source":7
		},
		{
			"sampler":0,
			"source":8
		},
		{
			"sampler":0,
			"source":9
		},
		{
			"sampler":0,
			"source":10
		},
		{
			"sampler":0,
			"source":11
		},
		{
			"sampler":0,
			"source":12
		},
		{
			"sampler":0,
			"source":13
		}
	],
	"images":[
		{
			"mimeType":"image/png",
			"name":"lambert19SG_Grungit",
			"uri":"lambert19SG_Grungit.png"
		},
		{
			"mimeType":"image/png",
			"name":"placa2",
			"uri":"placa2.png"
		},
		{
			"mimeType":"image/png",
			"name":"lambert19SG_Grungit",
			"uri":"lambert19SG_Grungit-1.png"
		},
		{
			"mimeType":"image/png",
			"name":"lambert21SG_Grungit",
			"uri":"lambert21SG_Grungit.png"
		},
		{
			"mimeType":"image/png",
			"name":"clinidrofuera",
			"uri":"clinidrofuera.png"
		},
		{
			"mimeType":"image/png",
			"name":"lambert21SG_Grungit",
			"uri":"lambert21SG_Grungit-1.png"
		},
		{
			"mimeType":"image/png",
			"name":"lambert20SG_Grungit",
			"uri":"lambert20SG_Grungit.png"
		},
		{
			"mimeType":"image/png",
			"name":"circulobase",
			"uri":"circulobase.png"
		},
		{
			"mimeType":"image/png",
			"name":"lambert20SG_Grungit",
			"uri":"lambert20SG_Grungit-1.png"
		},
		{
			"mimeType":"image/png",
			"name":"cupula2",
			"uri":"cupula2.png"
		},
		{
			"mimeType":"image/png",
			"name":"lambert16SG_Grungit",
			"uri":"lambert16SG_Grungit.png"
		},
		{
			"mimeType":"image/png",
			"name":"lambert15SG_Grungit",
			"uri":"lambert15SG_Grungit.png"
		},
		{
			"mimeType":"image/png",
			"name":"cilindro",
			"uri":"cilindro.png"
		},
		{
			"mimeType":"image/png",
			"name":"lambert15SG_Grungit",
			"uri":"lambert15SG_Grungit-1.png"
		}
	],
	"accessors":[
		{
			"bufferView":0,
			"componentType":5126,
			"count":1344,
			"max":[
				6.56126070022583,
				6.673213005065918,
				11.856681823730469
			],
			"min":[
				-6.9776811599731445,
				-7.113088130950928,
				2.235340118408203
			],
			"type":"VEC3"
		},
		{
			"bufferView":1,
			"componentType":5126,
			"count":1344,
			"type":"VEC3"
		},
		{
			"bufferView":2,
			"componentType":5126,
			"count":1344,
			"type":"VEC2"
		},
		{
			"bufferView":3,
			"componentType":5126,
			"count":1344,
			"type":"VEC2"
		},
		{
			"bufferView":4,
			"componentType":5123,
			"count":4536,
			"type":"SCALAR"
		},
		{
			"bufferView":5,
			"componentType":5126,
			"count":2153,
			"max":[
				6.9447197914123535,
				6.607455730438232,
				1.9638824462890625
			],
			"min":[
				-6.774842262268066,
				-7.1392340660095215,
				-2.296876907348633
			],
			"type":"VEC3"
		},
		{
			"bufferView":6,
			"componentType":5126,
			"count":2153,
			"type":"VEC3"
		},
		{
			"bufferView":7,
			"componentType":5126,
			"count":2153,
			"type":"VEC2"
		},
		{
			"bufferView":8,
			"componentType":5126,
			"count":2153,
			"type":"VEC2"
		},
		{
			"bufferView":9,
			"componentType":5123,
			"count":4230,
			"type":"SCALAR"
		},
		{
			"bufferView":10,
			"componentType":5126,
			"count":4391,
			"max":[
				7.733086585998535,
				11.774584770202637,
				18.515844345092773
			],
			"min":[
				-8.773735046386719,
				-8.146469116210938,
				0.9874382019042969
			],
			"type":"VEC3"
		},
		{
			"bufferView":11,
			"componentType":5126,
			"count":4391,
			"type":"VEC3"
		},
		{
			"bufferView":12,
			"componentType":5126,
			"count":4391,
			"type":"VEC2"
		},
		{
			"bufferView":13,
			"componentType":5126,
			"count":4391,
			"type":"VEC2"
		},
		{
			"bufferView":14,
			"componentType":5123,
			"count":22656,
			"type":"SCALAR"
		},
		{
			"bufferView":15,
			"componentType":5126,
			"count":11561,
			"max":[
				6.140105724334717,
				6.0540690422058105,
				-2.1849708557128906
			],
			"min":[
				-6.205894470214844,
				-6.246097087860107,
				-10.17291259765625
			],
			"type":"VEC3"
		},
		{
			"bufferView":16,
			"componentType":5126,
			"count":11561,
			"type":"VEC3"
		},
		{
			"bufferView":17,
			"componentType":5126,
			"count":11561,
			"type":"VEC2"
		},
		{
			"bufferView":18,
			"componentType":5126,
			"count":11561,
			"type":"VEC2"
		},
		{
			"bufferView":19,
			"componentType":5123,
			"count":66006,
			"type":"SCALAR"
		},
		{
			"bufferView":20,
			"componentType":5126,
			"count":80,
			"max":[
				6.221593856811523,
				5.9105401039123535,
				12.241036415100098
			],
			"min":[
				-5.919643402099609,
				-6.394521236419678,
				1.7358512878417969
			],
			"type":"VEC3"
		},
		{
			"bufferView":21,
			"componentType":5126,
			"count":80,
			"type":"VEC3"
		},
		{
			"bufferView":22,
			"componentType":5126,
			"count":80,
			"type":"VEC2"
		},
		{
			"bufferView":23,
			"componentType":5126,
			"count":80,
			"type":"VEC2"
		},
		{
			"bufferView":24,
			"componentType":5123,
			"count":276,
			"type":"SCALAR"
		}
	],
	"bufferViews":[
		{
			"buffer":0,
			"byteLength":16128,
			"byteOffset":0,
			"target":34962
		},
		{
			"buffer":0,
			"byteLength":16128,
			"byteOffset":16128,
			"target":34962
		},
		{
			"buffer":0,
			"byteLength":10752,
			"byteOffset":32256,
			"target":34962
		},
		{
			"buffer":0,
			"byteLength":10752,
			"byteOffset":43008,
			"target":34962
		},
		{
			"buffer":0,
			"byteLength":9072,
			"byteOffset":53760,
			"target":34963
		},
		{
			"buffer":0,
			"byteLength":25836,
			"byteOffset":62832,
			"target":34962
		},
		{
			"buffer":0,
			"byteLength":25836,
			"byteOffset":88668,
			"target":34962
		},
		{
			"buffer":0,
			"byteLength":17224,
			"byteOffset":114504,
			"target":34962
		},
		{
			"buffer":0,
			"byteLength":17224,
			"byteOffset":131728,
			"target":34962
		},
		{
			"buffer":0,
			"byteLength":8460,
			"byteOffset":148952,
			"target":34963
		},
		{
			"buffer":0,
			"byteLength":52692,
			"byteOffset":157412,
			"target":34962
		},
		{
			"buffer":0,
			"byteLength":52692,
			"byteOffset":210104,
			"target":34962
		},
		{
			"buffer":0,
			"byteLength":35128,
			"byteOffset":262796,
			"target":34962
		},
		{
			"buffer":0,
			"byteLength":35128,
			"byteOffset":297924,
			"target":34962
		},
		{
			"buffer":0,
			"byteLength":45312,
			"byteOffset":333052,
			"target":34963
		},
		{
			"buffer":0,
			"byteLength":138732,
			"byteOffset":378364,
			"target":34962
		},
		{
			"buffer":0,
			"byteLength":138732,
			"byteOffset":517096,
			"target":34962
		},
		{
			"buffer":0,
			"byteLength":92488,
			"byteOffset":655828,
			"target":34962
		},
		{
			"buffer":0,
			"byteLength":92488,
			"byteOffset":748316,
			"target":34962
		},
		{
			"buffer":0,
			"byteLength":132012,
			"byteOffset":840804,
			"target":34963
		},
		{
			"buffer":0,
			"byteLength":960,
			"byteOffset":972816,
			"target":34962
		},
		{
			"buffer":0,
			"byteLength":960,
			"byteOffset":973776,
			"target":34962
		},
		{
			"buffer":0,
			"byteLength":640,
			"byteOffset":974736,
			"target":34962
		},
		{
			"buffer":0,
			"byteLength":640,
			"byteOffset":975376,
			"target":34962
		},
		{
			"buffer":0,
			"byteLength":552,
			"byteOffset":976016,
			"target":34963
		}
	],
	"samplers":[
		{
			"magFilter":9729,
			"minFilter":9987
		}
	],
	"buffers":[
		{
			"byteLength":976568,
			"uri":"Time%20Machine%200.bin"
		}
	]
}
