{
	"asset":{
		"generator":"Khronos glTF Blender I/O v4.3.47",
		"version":"2.0"
	},
	"extensionsUsed":[
		"KHR_materials_specular",
		"KHR_materials_ior"
	],
	"scene":0,
	"scenes":[
		{
			"name":"Scene",
			"nodes":[
				0
			]
		}
	],
	"nodes":[
		{
			"mesh":0,
			"name":"NAVEFIN",
			"rotation":[
				0.7071068286895752,
				0,
				0,
				0.7071068286895752
			]
		}
	],
	"materials":[
		{
			"doubleSided":true,
			"extensions":{
				"KHR_materials_specular":{
					"specularFactor":0
				}
			},
			"name":"lambert20SG",
			"pbrMetallicRoughness":{
				"baseColorTexture":{
					"index":0
				},
				"metallicFactor":0
			}
		},
		{
			"doubleSided":true,
			"extensions":{
				"KHR_materials_specular":{
					"specularFactor":0
				}
			},
			"name":"lambert22SG",
			"pbrMetallicRoughness":{
				"baseColorTexture":{
					"index":1
				},
				"metallicFactor":0
			}
		},
		{
			"doubleSided":true,
			"extensions":{
				"KHR_materials_specular":{
					"specularFactor":0
				}
			},
			"name":"lambert19SG",
			"pbrMetallicRoughness":{
				"baseColorTexture":{
					"index":2
				},
				"metallicFactor":0
			}
		},
		{
			"doubleSided":true,
			"extensions":{
				"KHR_materials_specular":{
					"specularFactor":0
				}
			},
			"name":"lambert15SG",
			"pbrMetallicRoughness":{
				"baseColorTexture":{
					"index":3
				},
				"metallicFactor":0
			}
		},
		{
			"doubleSided":true,
			"extensions":{
				"KHR_materials_specular":{
					"specularFactor":0
				}
			},
			"name":"lambert21SG",
			"pbrMetallicRoughness":{
				"baseColorTexture":{
					"index":4
				},
				"metallicFactor":0
			}
		},
		{
			"alphaMode":"BLEND",
			"doubleSided":true,
			"extensions":{
				"KHR_materials_specular":{
					"specularFactor":0
				},
				"KHR_materials_ior":{
					"ior":1.2999999523162842
				}
			},
			"name":"lambert16SG",
			"pbrMetallicRoughness":{
				"baseColorFactor":[
					1,
					1,
					1,
					0.836363673210144
				],
				"baseColorTexture":{
					"index":5
				},
				"metallicFactor":0
			}
		}
	],
	"meshes":[
		{
			"name":"NAVEFIN",
			"primitives":[
				{
					"attributes":{
						"POSITION":0,
						"NORMAL":1,
						"TEXCOORD_0":2
					},
					"indices":3,
					"material":0
				},
				{
					"attributes":{
						"POSITION":4,
						"NORMAL":5,
						"TEXCOORD_0":6
					},
					"indices":7,
					"material":1
				},
				{
					"attributes":{
						"POSITION":8,
						"NORMAL":9,
						"TEXCOORD_0":10
					},
					"indices":11,
					"material":2
				},
				{
					"attributes":{
						"POSITION":12,
						"NORMAL":13,
						"TEXCOORD_0":14
					},
					"indices":15,
					"material":3
				},
				{
					"attributes":{
						"POSITION":16,
						"NORMAL":17,
						"TEXCOORD_0":18
					},
					"indices":19,
					"material":4
				},
				{
					"attributes":{
						"POSITION":20,
						"NORMAL":21,
						"TEXCOORD_0":22
					},
					"indices":23,
					"material":5
				}
			]
		}
	],
	"textures":[
		{
			"sampler":0,
			"source":0
		},
		{
			"sampler":0,
			"source":1
		},
		{
			"sampler":0,
			"source":2
		},
		{
			"sampler":0,
			"source":3
		},
		{
			"sampler":0,
			"source":4
		},
		{
			"sampler":0,
			"source":5
		}
	],
	"images":[
		{
			"mimeType":"image/png",
			"name":"circulobase",
			"uri":"circulobase.png"
		},
		{
			"mimeType":"image/png",
			"name":"cca\u00f1on",
			"uri":"cca%C3%B1on.png"
		},
		{
			"mimeType":"image/png",
			"name":"placa2",
			"uri":"placa2.png"
		},
		{
			"mimeType":"image/png",
			"name":"cilindro",
			"uri":"cilindro.png"
		},
		{
			"mimeType":"image/png",
			"name":"clinidrofuera",
			"uri":"clinidrofuera.png"
		},
		{
			"mimeType":"image/png",
			"name":"cupula2",
			"uri":"cupula2.png"
		}
	],
	"accessors":[
		{
			"bufferView":0,
			"componentType":5126,
			"count":6324,
			"max":[
				13.713452339172363,
				12.016575813293457,
				0.03902199864387512
			],
			"min":[
				-10.471980094909668,
				-13.463213920593262,
				-19.87211036682129
			],
			"type":"VEC3"
		},
		{
			"bufferView":1,
			"componentType":5126,
			"count":6324,
			"type":"VEC3"
		},
		{
			"bufferView":2,
			"componentType":5126,
			"count":6324,
			"type":"VEC2"
		},
		{
			"bufferView":3,
			"componentType":5123,
			"count":33198,
			"type":"SCALAR"
		},
		{
			"bufferView":4,
			"componentType":5126,
			"count":1715,
			"max":[
				9.170218467712402,
				10.166990280151367,
				-7.810641765594482
			],
			"min":[
				-10.701958656311035,
				-10.019545555114746,
				-15.390401840209961
			],
			"type":"VEC3"
		},
		{
			"bufferView":5,
			"componentType":5126,
			"count":1715,
			"type":"VEC3"
		},
		{
			"bufferView":6,
			"componentType":5126,
			"count":1715,
			"type":"VEC2"
		},
		{
			"bufferView":7,
			"componentType":5123,
			"count":4770,
			"type":"SCALAR"
		},
		{
			"bufferView":8,
			"componentType":5126,
			"count":1300,
			"max":[
				6.457009792327881,
				6.915204048156738,
				-6.878383159637451
			],
			"min":[
				-7.109883785247803,
				-6.871097087860107,
				-16.499725341796875
			],
			"type":"VEC3"
		},
		{
			"bufferView":9,
			"componentType":5126,
			"count":1300,
			"type":"VEC3"
		},
		{
			"bufferView":10,
			"componentType":5126,
			"count":1300,
			"type":"VEC2"
		},
		{
			"bufferView":11,
			"componentType":5123,
			"count":4950,
			"type":"SCALAR"
		},
		{
			"bufferView":12,
			"componentType":5126,
			"count":80,
			"max":[
				6.185812950134277,
				6.152531147003174,
				-6.4940290451049805
			],
			"min":[
				-6.051846027374268,
				-6.152530193328857,
				-16.99921417236328
			],
			"type":"VEC3"
		},
		{
			"bufferView":13,
			"componentType":5126,
			"count":80,
			"type":"VEC3"
		},
		{
			"bufferView":14,
			"componentType":5126,
			"count":80,
			"type":"VEC2"
		},
		{
			"bufferView":15,
			"componentType":5123,
			"count":360,
			"type":"SCALAR"
		},
		{
			"bufferView":16,
			"componentType":5126,
			"count":2298,
			"max":[
				6.812517166137695,
				6.849446773529053,
				-16.771183013916016
			],
			"min":[
				-6.907044887542725,
				-6.897243022918701,
				-21.03194236755371
			],
			"type":"VEC3"
		},
		{
			"bufferView":17,
			"componentType":5126,
			"count":2298,
			"type":"VEC3"
		},
		{
			"bufferView":18,
			"componentType":5126,
			"count":2298,
			"type":"VEC2"
		},
		{
			"bufferView":19,
			"componentType":5123,
			"count":4554,
			"type":"SCALAR"
		},
		{
			"bufferView":20,
			"componentType":5126,
			"count":12417,
			"max":[
				6.007903099060059,
				6.296060085296631,
				-20.92003631591797
			],
			"min":[
				-6.338097095489502,
				-6.175901889801025,
				-28.907978057861328
			],
			"type":"VEC3"
		},
		{
			"bufferView":21,
			"componentType":5126,
			"count":12417,
			"type":"VEC3"
		},
		{
			"bufferView":22,
			"componentType":5126,
			"count":12417,
			"type":"VEC2"
		},
		{
			"bufferView":23,
			"componentType":5123,
			"count":73728,
			"type":"SCALAR"
		}
	],
	"bufferViews":[
		{
			"buffer":0,
			"byteLength":75888,
			"byteOffset":0,
			"target":34962
		},
		{
			"buffer":0,
			"byteLength":75888,
			"byteOffset":75888,
			"target":34962
		},
		{
			"buffer":0,
			"byteLength":50592,
			"byteOffset":151776,
			"target":34962
		},
		{
			"buffer":0,
			"byteLength":66396,
			"byteOffset":202368,
			"target":34963
		},
		{
			"buffer":0,
			"byteLength":20580,
			"byteOffset":268764,
			"target":34962
		},
		{
			"buffer":0,
			"byteLength":20580,
			"byteOffset":289344,
			"target":34962
		},
		{
			"buffer":0,
			"byteLength":13720,
			"byteOffset":309924,
			"target":34962
		},
		{
			"buffer":0,
			"byteLength":9540,
			"byteOffset":323644,
			"target":34963
		},
		{
			"buffer":0,
			"byteLength":15600,
			"byteOffset":333184,
			"target":34962
		},
		{
			"buffer":0,
			"byteLength":15600,
			"byteOffset":348784,
			"target":34962
		},
		{
			"buffer":0,
			"byteLength":10400,
			"byteOffset":364384,
			"target":34962
		},
		{
			"buffer":0,
			"byteLength":9900,
			"byteOffset":374784,
			"target":34963
		},
		{
			"buffer":0,
			"byteLength":960,
			"byteOffset":384684,
			"target":34962
		},
		{
			"buffer":0,
			"byteLength":960,
			"byteOffset":385644,
			"target":34962
		},
		{
			"buffer":0,
			"byteLength":640,
			"byteOffset":386604,
			"target":34962
		},
		{
			"buffer":0,
			"byteLength":720,
			"byteOffset":387244,
			"target":34963
		},
		{
			"buffer":0,
			"byteLength":27576,
			"byteOffset":387964,
			"target":34962
		},
		{
			"buffer":0,
			"byteLength":27576,
			"byteOffset":415540,
			"target":34962
		},
		{
			"buffer":0,
			"byteLength":18384,
			"byteOffset":443116,
			"target":34962
		},
		{
			"buffer":0,
			"byteLength":9108,
			"byteOffset":461500,
			"target":34963
		},
		{
			"buffer":0,
			"byteLength":149004,
			"byteOffset":470608,
			"target":34962
		},
		{
			"buffer":0,
			"byteLength":149004,
			"byteOffset":619612,
			"target":34962
		},
		{
			"buffer":0,
			"byteLength":99336,
			"byteOffset":768616,
			"target":34962
		},
		{
			"buffer":0,
			"byteLength":147456,
			"byteOffset":867952,
			"target":34963
		}
	],
	"samplers":[
		{
			"magFilter":9729,
			"minFilter":9987
		}
	],
	"buffers":[
		{
			"byteLength":1015408,
			"uri":"Time%20Machine%20100.bin"
		}
	]
}
